<svg width="67" height="66" viewBox="0 0 67 66" fill="none" xmlns="http://www.w3.org/2000/svg">
<g clip-path="url(#clip0_2801_2892)">
<path d="M33.5927 40.9029C38.1107 40.9029 41.7733 37.2404 41.7733 32.7224C41.7733 28.2043 38.1107 24.5418 33.5927 24.5418C29.0747 24.5418 25.4121 28.2043 25.4121 32.7224C25.4121 37.2404 29.0747 40.9029 33.5927 40.9029Z" stroke="black" stroke-width="4.72656" stroke-linecap="round" stroke-linejoin="round"/>
<path d="M53.77 40.9029C53.407 41.7254 53.2987 42.6377 53.4591 43.5223C53.6195 44.4069 54.0412 45.2231 54.6698 45.8658L54.8335 46.0294C55.3405 46.5359 55.7428 47.1374 56.0172 47.7995C56.2917 48.4615 56.433 49.1712 56.433 49.8879C56.433 50.6046 56.2917 51.3143 56.0172 51.9764C55.7428 52.6384 55.3405 53.2399 54.8335 53.7464C54.327 54.2535 53.7255 54.6558 53.0634 54.9302C52.4013 55.2047 51.6917 55.3459 50.9749 55.3459C50.2582 55.3459 49.5486 55.2047 48.8865 54.9302C48.2244 54.6558 47.6229 54.2535 47.1164 53.7464L46.9528 53.5828C46.3102 52.9542 45.4939 52.5325 44.6093 52.3721C43.7247 52.2117 42.8124 52.32 41.9899 52.683C41.1834 53.0286 40.4956 53.6026 40.0111 54.3342C39.5266 55.0658 39.2666 55.923 39.2631 56.8005V57.2641C39.2631 58.7105 38.6885 60.0977 37.6657 61.1204C36.6429 62.1432 35.2558 62.7178 33.8093 62.7178C32.3629 62.7178 30.9758 62.1432 29.953 61.1204C28.9302 60.0977 28.3556 58.7105 28.3556 57.2641V57.0187C28.3345 56.1161 28.0424 55.2407 27.5171 54.5064C26.9919 53.7721 26.2579 53.2127 25.4106 52.9011C24.5881 52.5381 23.6758 52.4298 22.7912 52.5902C21.9066 52.7506 21.0904 53.1723 20.4477 53.801L20.2841 53.9646C19.7776 54.4716 19.1761 54.8739 18.514 55.1484C17.852 55.4228 17.1423 55.5641 16.4256 55.5641C15.7089 55.5641 14.9992 55.4228 14.3371 55.1484C13.6751 54.8739 13.0736 54.4716 12.5671 53.9646C12.06 53.4581 11.6578 52.8566 11.3833 52.1945C11.1088 51.5324 10.9676 50.8228 10.9676 50.1061C10.9676 49.3894 11.1088 48.6797 11.3833 48.0176C11.6578 47.3555 12.06 46.7541 12.5671 46.2476L12.7307 46.0839C13.3593 45.4413 13.781 44.625 13.9414 43.7404C14.1018 42.8559 13.9935 41.9435 13.6306 41.1211C13.2849 40.3145 12.7109 39.6267 11.9793 39.1422C11.2478 38.6577 10.3905 38.3977 9.513 38.3942H9.04943C7.60301 38.3942 6.21583 37.8196 5.19306 36.7968C4.17029 35.7741 3.5957 34.3869 3.5957 32.9405C3.5957 31.494 4.17029 30.1069 5.19306 29.0841C6.21583 28.0613 7.60301 27.4867 9.04943 27.4867H9.29485C10.1974 27.4656 11.0728 27.1735 11.8071 26.6483C12.5414 26.123 13.1008 25.3891 13.4124 24.5417C13.7754 23.7193 13.8837 22.8069 13.7233 21.9223C13.5629 21.0378 13.1412 20.2215 12.5125 19.5788L12.3489 19.4152C11.8419 18.9087 11.4396 18.3072 11.1651 17.6452C10.8907 16.9831 10.7494 16.2734 10.7494 15.5567C10.7494 14.84 10.8907 14.1303 11.1651 13.4683C11.4396 12.8062 11.8419 12.2047 12.3489 11.6982C12.8554 11.1911 13.4569 10.7889 14.119 10.5144C14.7811 10.24 15.4907 10.0987 16.2074 10.0987C16.9241 10.0987 17.6338 10.24 18.2959 10.5144C18.958 10.7889 19.5595 11.1911 20.066 11.6982L20.2296 11.8618C20.8722 12.4905 21.6885 12.9122 22.5731 13.0726C23.4576 13.2329 24.37 13.1247 25.1925 12.7617H25.4106C26.2171 12.416 26.905 11.8421 27.3895 11.1105C27.874 10.3789 28.134 9.52158 28.1375 8.64412V8.18055C28.1375 6.73413 28.7121 5.34695 29.7348 4.32418C30.7576 3.30141 32.1448 2.72682 33.5912 2.72682C35.0376 2.72682 36.4248 3.30141 37.4476 4.32418C38.4703 5.34695 39.0449 6.73413 39.0449 8.18055V8.42597C39.0484 9.30343 39.3084 10.1607 39.7929 10.8923C40.2774 11.6239 40.9653 12.1979 41.7718 12.5435C42.5942 12.9065 43.5066 13.0148 44.3912 12.8544C45.2758 12.694 46.092 12.2723 46.7347 11.6437L46.8983 11.4801C47.4048 10.973 48.0063 10.5707 48.6683 10.2963C49.3304 10.0218 50.0401 9.88055 50.7568 9.88055C51.4735 9.88055 52.1832 10.0218 52.8452 10.2963C53.5073 10.5707 54.1088 10.973 54.6153 11.4801C55.1224 11.9866 55.5246 12.588 55.7991 13.2501C56.0735 13.9122 56.2148 14.6219 56.2148 15.3386C56.2148 16.0553 56.0735 16.7649 55.7991 17.427C55.5246 18.0891 55.1224 18.6906 54.6153 19.1971L54.4517 19.3607C53.8231 20.0034 53.4013 20.8196 53.241 21.7042C53.0806 22.5888 53.1888 23.5011 53.5518 24.3236V24.5417C53.8975 25.3482 54.4715 26.0361 55.203 26.5206C55.9346 27.0051 56.7919 27.2651 57.6694 27.2686H58.133C59.5794 27.2686 60.9666 27.8432 61.9893 28.8659C63.0121 29.8887 63.5867 31.2759 63.5867 32.7223C63.5867 34.1687 63.0121 35.5559 61.9893 36.5787C60.9666 37.6015 59.5794 38.176 58.133 38.176H57.8875C57.0101 38.1795 56.1528 38.4395 55.4212 38.924C54.6896 39.4085 54.1156 40.0964 53.77 40.9029Z" stroke="black" stroke-width="4.72656" stroke-linecap="round" stroke-linejoin="round"/>
</g>
<defs>
<clipPath id="clip0_2801_2892">
<rect width="65.4447" height="65.4447" fill="white" transform="translate(0.869141)"/>
</clipPath>
</defs>
</svg>
