<svg width="67" height="66" viewBox="0 0 67 66" fill="none" xmlns="http://www.w3.org/2000/svg">
<g clip-path="url(#clip0_2801_2884)">
<path d="M25.3519 59.991C26.8579 59.991 28.0787 58.7701 28.0787 57.2641C28.0787 55.7581 26.8579 54.5373 25.3519 54.5373C23.8459 54.5373 22.625 55.7581 22.625 57.2641C22.625 58.7701 23.8459 59.991 25.3519 59.991Z" stroke="black" stroke-width="5.24183" stroke-linecap="round" stroke-linejoin="round"/>
<path d="M55.346 59.991C56.852 59.991 58.0729 58.7701 58.0729 57.2641C58.0729 55.7581 56.852 54.5373 55.346 54.5373C53.84 54.5373 52.6191 55.7581 52.6191 57.2641C52.6191 58.7701 53.84 59.991 55.346 59.991Z" stroke="black" stroke-width="5.24183" stroke-linecap="round" stroke-linejoin="round"/>
<path d="M3.53516 2.72686H14.4426L21.7506 39.2396C22 40.495 22.6829 41.6227 23.68 42.4253C24.677 43.228 25.9246 43.6543 27.2043 43.6298H53.7094C54.9892 43.6543 56.2367 43.228 57.2338 42.4253C58.2308 41.6227 58.9138 40.495 59.1632 39.2396L63.5261 16.3612H17.1695" stroke="black" stroke-width="5.24183" stroke-linecap="round" stroke-linejoin="round"/>
</g>
<defs>
<clipPath id="clip0_2801_2884">
<rect width="65.4447" height="65.4447" fill="white" transform="translate(0.808594)"/>
</clipPath>
</defs>
</svg>
