<svg width="67" height="66" viewBox="0 0 67 66" fill="none" xmlns="http://www.w3.org/2000/svg">
<path d="M44.5572 8.18059H3.6543V43.6298H44.5572V8.18059Z" stroke="black" stroke-width="4.36298" stroke-linecap="round" stroke-linejoin="round"/>
<path d="M44.5566 21.8149H55.4641L63.6447 29.9955V43.6298H44.5566V21.8149Z" stroke="black" stroke-width="4.36298" stroke-linecap="round" stroke-linejoin="round"/>
<path d="M15.9246 57.2641C19.6896 57.2641 22.7417 54.212 22.7417 50.447C22.7417 46.682 19.6896 43.6298 15.9246 43.6298C12.1596 43.6298 9.10742 46.682 9.10742 50.447C9.10742 54.212 12.1596 57.2641 15.9246 57.2641Z" stroke="black" stroke-width="4.36298" stroke-linecap="round" stroke-linejoin="round"/>
<path d="M51.3738 57.2641C55.1388 57.2641 58.191 54.212 58.191 50.447C58.191 46.682 55.1388 43.6298 51.3738 43.6298C47.6088 43.6298 44.5566 46.682 44.5566 50.447C44.5566 54.212 47.6088 57.2641 51.3738 57.2641Z" stroke="black" stroke-width="4.36298" stroke-linecap="round" stroke-linejoin="round"/>
</svg>
