<svg width="56" height="75" viewBox="0 0 56 75" fill="none" xmlns="http://www.w3.org/2000/svg">
<g clip-path="url(#clip0_2801_2967)">
<path d="M45.4996 30.087C43.9383 30.3125 42.4033 30.7126 40.8535 31.0172C39.4964 31.2856 39.3992 31.2148 39.0056 29.7758C40.0432 29.6638 41.0726 29.5585 42.1019 29.4416C44.3517 29.1847 46.3873 28.4965 47.2734 26.1768C47.8762 24.5978 48.2435 22.9284 48.7227 21.2754C47.0115 21.5405 45.409 21.8236 43.7967 22.0294C40.0597 22.5086 38.2068 24.0183 37.3702 27.428C36.9337 26.7481 36.5434 26.1422 36.0938 25.4425C35.8681 25.8722 35.6853 26.2261 35.4992 26.5785C35.295 26.9654 34.8306 27.4675 34.9409 27.7063C35.1007 28.0487 35.6705 28.2117 36.0757 28.429C37.1412 29.0036 38.0026 29.7429 38.2875 31.1176C37.5909 31.0139 36.9733 30.9349 36.3606 30.8262C34.4929 30.4969 32.7027 29.7099 30.7263 30.082C29.7793 30.2615 28.8718 30.5348 28.0352 30.9184C30.1301 31.8766 31.7738 33.5164 32.4194 36.0552C33.2742 39.4139 33.2758 42.7759 32.4639 46.1197C31.6651 49.4142 30.0774 52.218 28.0352 54.7222C29.1139 56.0443 30.3195 57.2824 31.6025 58.4678C32.6631 59.4457 33.9412 60.0467 35.4383 59.561C37.9384 58.7493 40.4154 58.7427 42.9122 59.5709C44.1738 59.9891 45.3547 59.6318 46.2638 58.7724C47.7329 57.3844 49.1822 55.9537 50.4652 54.3962C54.7671 49.1672 56.167 43.1825 54.7918 36.5639C53.9156 32.3574 49.7735 29.4696 45.4996 30.087Z" fill="#62A944"/>
<path d="M23.6499 36.0551C24.2955 33.5164 25.9375 31.8766 28.0341 30.9184C27.1975 30.5364 26.29 30.2614 25.343 30.082C23.3666 29.7082 21.5747 30.4969 19.7087 30.8245C19.096 30.9315 18.4801 31.0105 17.7818 31.1159C18.0667 29.7412 18.928 29.0019 19.9936 28.4273C20.3988 28.2084 20.9686 28.047 21.1284 27.7046C21.2387 27.4658 20.7743 26.9637 20.5701 26.5768C20.384 26.2244 20.2011 25.8721 19.9755 25.4407C19.5259 26.1405 19.1356 26.7463 18.6991 27.4263C17.8625 24.0166 16.0096 22.5068 12.2726 22.0277C10.6603 21.8203 9.05776 21.5371 7.34655 21.2737C7.82582 22.9283 8.1931 24.5961 8.79589 26.175C9.68196 28.4932 11.7176 29.183 13.9674 29.4399C14.9951 29.5568 16.0244 29.6621 17.062 29.7741C16.6684 31.2131 16.5729 31.2822 15.2141 31.0155C13.6643 30.7093 12.1294 30.3108 10.568 30.0853C6.29414 29.4695 2.15201 32.3573 1.27747 36.5622C-0.0993931 43.1792 1.30218 49.1639 5.60406 54.3945C6.8854 55.952 8.33638 57.3827 9.80548 58.7707C10.7146 59.6301 11.8955 59.9874 13.1571 59.5692C15.6522 58.741 18.1309 58.7476 20.631 59.5593C22.1281 60.045 23.4062 59.444 24.4668 58.4661C25.7498 57.2823 26.9554 56.0426 28.0341 54.7205C25.9902 52.2163 24.4042 49.4125 23.6054 46.118C22.7935 42.7758 22.7951 39.4122 23.6499 36.0551Z" fill="#EC2228"/>
<path d="M15.8348 9.41956H15.8117C15.6454 9.41956 15.451 9.45248 15.2287 9.51834C14.3887 9.97604 13.9688 10.5803 13.9688 11.3327C13.9836 11.5368 13.9918 11.6439 13.9918 11.6521C14.2026 12.3716 14.6061 12.7305 15.2056 12.7305H15.2748C15.5548 12.7305 15.8183 12.6564 16.0686 12.5099C16.7521 12.0522 17.0947 11.4792 17.0947 10.7927C17.0947 10.7729 17.0865 10.6906 17.0716 10.5473C16.8855 9.79658 16.4721 9.41956 15.8348 9.41956Z" fill="black"/>
<path d="M27.3174 18.5044C26.8546 18.5044 26.4428 18.7085 26.0805 19.1169H26.0575C25.8318 18.5291 25.4431 18.2344 24.8914 18.2344H24.8683C24.7004 18.2344 24.506 18.2673 24.2853 18.3315C23.4454 18.7892 23.0254 19.3934 23.0254 20.1459C23.0419 20.35 23.0484 20.457 23.0484 20.4653C23.2576 21.1847 23.6628 21.5437 24.2606 21.5437H24.3298C24.8733 21.5437 25.3723 21.2572 25.8219 20.6859C26.0196 21.1271 26.3391 21.3477 26.7788 21.3477H26.8727C26.9929 21.3477 27.1247 21.323 27.2696 21.2736C28.0157 20.9147 28.3896 20.3829 28.3896 19.6799C28.3896 19.5729 28.3731 19.4593 28.3435 19.3375C28.1541 18.7826 27.8115 18.5044 27.3174 18.5044Z" fill="black"/>
<path d="M39.8396 18.0879C39.6485 18.0879 39.4624 18.1208 39.2796 18.1867C38.5796 18.5835 38.2305 19.0988 38.2305 19.731C38.2305 19.838 38.2453 19.9599 38.2766 20.0982C38.4627 20.6546 38.8053 20.9312 39.3026 20.9312H39.3965C39.5168 20.9312 39.6485 20.9065 39.7934 20.8572C40.5395 20.4982 40.9134 19.9664 40.9134 19.2634C40.9134 19.1564 40.8969 19.0428 40.8673 18.921C40.6746 18.3661 40.332 18.0879 39.8396 18.0879Z" fill="black"/>
<path d="M43.8966 10.144V10.1193C43.1506 9.82458 42.4737 9.67805 41.8676 9.67805H41.6337C40.5484 9.67805 39.8253 10.1851 39.4646 11.1977C39.3592 11.6439 39.2423 12.7058 39.1155 14.3851C39.0101 15.48 38.6692 16.0283 38.0894 16.0283H37.4833C37.4586 16.0283 37.4438 16.0431 37.4389 16.0711H36.813C36.813 16.0431 36.7966 16.0266 36.7669 16.0217H35.95C35.53 16.0217 35.3209 16.0052 35.3209 15.9723C35.0755 15.9723 34.9042 15.7764 34.807 15.3845C35.1018 13.7414 35.3505 12.4506 35.5531 11.5105C36.2843 7.97566 36.65 5.80076 36.65 4.98743C36.65 4.46058 36.5413 4.01111 36.3239 3.63902C35.6783 2.62483 34.6753 2.11938 33.3149 2.11938C33.2836 2.13585 33.2605 2.14408 33.2457 2.14408C33.2292 2.14408 33.2062 2.13585 33.1749 2.11938C33.0942 2.13585 33.0003 2.14408 32.8949 2.14408C32.1949 2.23463 31.8458 2.30708 31.8458 2.3647V2.3894C32.7005 3.14181 33.1288 4.66967 33.1288 6.97465C33.1139 8.31976 33.0826 9.21047 33.0349 9.64677C33.0349 9.94148 32.8867 11.4117 32.5918 14.0608C32.6067 14.0608 32.6149 14.069 32.6149 14.0855H32.5918C32.5754 14.4987 32.5688 14.8247 32.5688 15.0667V15.2874C32.5688 15.5162 32.5144 15.6957 32.4057 15.8274C32.3399 15.9904 32.0121 16.0727 31.4258 16.0727H30.7719H30.6089H29.6339H29.4181H28.6605C28.6523 16.0628 28.6408 16.0562 28.6243 16.0546H28.3213C27.893 16.0546 27.6378 15.8751 27.5521 15.5146L27.6921 15.1227C27.9869 13.5372 28.206 12.4506 28.346 11.8612C28.6062 11.0232 28.9405 10.4601 29.349 10.1687V10.144C28.6029 9.84928 27.926 9.70275 27.3199 9.70275H27.086C26.0007 9.70275 25.2777 10.2098 24.917 11.2224C24.8116 11.6686 24.6946 12.7305 24.5678 14.4098C24.4624 15.5047 24.1215 16.0529 23.5417 16.0529H22.9357C22.9192 16.0529 22.9093 16.0595 22.9011 16.0711H22.2653H22.0496H21.3348C21.3299 16.0694 21.3266 16.0661 21.32 16.0645H20.1309C19.7076 16.0645 19.4424 15.9344 19.337 15.6726C20.0633 14.8725 20.5772 14.4378 20.877 14.3736C21.0828 14.3736 21.2541 14.4889 21.3908 14.7177C21.4797 14.9877 21.5423 15.1343 21.5769 15.1589H21.6C21.8174 14.53 21.9261 14.0065 21.9261 13.5899L21.88 12.9281C21.7548 12.2909 21.5374 11.9715 21.2261 11.9715C20.9346 11.9715 20.5541 12.2744 20.0831 12.8787C19.3321 13.6591 18.7952 14.1415 18.474 14.3259C17.4875 14.996 16.4219 15.3318 15.2789 15.3318C14.4044 15.3318 13.5479 15.07 12.7129 14.5465C11.2768 13.4829 10.562 12.0275 10.562 10.1802V9.98428C10.562 8.85649 10.8733 7.74517 11.4958 6.64866C11.7099 6.26504 12.0986 5.83204 12.6619 5.34964C13.6995 4.67955 14.7963 4.34368 15.9509 4.34368C17.4562 4.34368 18.614 4.90017 19.426 6.0115C19.426 5.98351 19.3321 5.81063 19.146 5.49617C18.0063 3.89421 16.5372 3.09241 14.737 3.09241H14.411C13.296 3.09241 12.1365 3.42005 10.9358 4.07367C10.3495 4.35521 9.65615 4.9117 8.86066 5.74149C7.56944 7.28253 6.92383 9.13803 6.92383 11.308C6.92383 14.1398 7.96636 16.2736 10.0498 17.7076C11.1384 18.3448 12.1579 18.6642 13.1049 18.6642C14.8194 18.6642 16.4993 18.0105 18.143 16.7016C18.1891 16.8893 18.2682 17.0606 18.3769 17.217C18.6453 17.5594 19.2679 17.7323 20.2429 17.7323H20.8901C20.8967 17.7339 20.9 17.7389 20.9082 17.7389H22.0447H22.2604H23.3968C23.4149 17.7389 23.4265 17.7323 23.433 17.7208H24.3521C25.2579 17.7208 25.9891 17.5084 26.5442 17.0836C26.7616 17.4722 27.3265 17.6829 28.2373 17.7158C28.2438 17.7306 28.2554 17.7389 28.2751 17.7389H29.4115H29.6273H30.6023H30.7654H31.6284C32.4173 17.7389 32.969 17.617 33.2852 17.3717C33.7052 17.6006 34.0939 17.7158 34.4513 17.7158H36.594C36.6006 17.7306 36.6121 17.7405 36.6335 17.7405H37.9857C38.0137 17.7405 38.0285 17.7257 38.0301 17.6977H38.9014C40.41 17.6977 41.4212 17.133 41.9335 16.0052C42.1789 15.3796 42.4588 14.1464 42.7734 12.3024C43.0452 11.1862 43.419 10.4667 43.8966 10.144Z" fill="black"/>
<path d="M45.949 3.84149C45.5438 4.31566 45.3264 4.74866 45.2952 5.14051H45.3182C46.0379 4.32389 46.8301 3.91393 47.6981 3.91393C47.9072 3.91393 48.1494 3.94686 48.4211 4.01272C48.4837 3.80856 48.5776 3.31793 48.7011 2.54083C48.6863 2.54083 48.678 2.5326 48.678 2.51613C47.7755 2.84377 47.0607 3.00676 46.532 3.00676H46.4629C46.0429 2.95408 45.8337 2.74992 45.8337 2.3943C45.9029 1.80488 46.1516 1.51182 46.5798 1.51182H46.649C46.9405 1.51182 47.2056 1.79007 47.4428 2.34491L48.4689 1.65835V1.58591C48.095 0.785757 47.6289 0.384033 47.0689 0.384033H46.672C46.4892 0.384033 46.28 0.44989 46.0429 0.579956C45.3281 1.07388 44.9707 1.67153 44.9707 2.3696C44.9707 3.05286 45.2968 3.54349 45.949 3.84149Z" fill="black"/>
<path d="M47.1848 4.724C46.6215 4.724 46.1225 4.85571 45.691 5.11584C45.2941 5.38586 45.0305 5.70361 44.8971 6.07241C44.7423 6.07241 44.4623 8.64739 44.0572 13.7974C43.9172 15.2199 43.7459 16.3312 43.545 17.1313C43.545 17.3108 43.405 17.6878 43.125 18.2591V18.2838C43.2106 18.2838 43.2963 18.2921 43.3819 18.3085L44.1988 18.2591C45.3105 18.2591 46.05 17.6549 46.414 16.4448C46.6792 15.3203 46.8109 14.5695 46.8109 14.1892C47.0876 10.4782 47.4516 8.05962 47.9078 6.93019C48.2191 6.10863 48.6308 5.56038 49.1447 5.28707V5.26237C48.4711 4.90346 47.8189 4.724 47.1848 4.724Z" fill="black"/>
<path d="M16.6164 72.263H14.64L14.1212 70.5309H12.0559L11.5371 72.263H9.57227L12.2964 63.8712H13.8939L16.6164 72.263ZM13.5892 68.7331L13.0951 67.0817L12.601 68.7331H13.5892Z" fill="black"/>
<path d="M18.9992 74.5663H17.1875V65.6279H18.9498C19.9808 65.6362 20.7285 65.8403 21.1929 66.2404C22.0214 66.9237 22.4397 67.8341 22.4479 68.9701C22.4479 70.0979 22.0675 70.9903 21.3082 71.6472C20.768 72.0736 20.1586 72.286 19.4834 72.286L19.0025 72.2992V74.5663H18.9992ZM19.3533 70.5046C19.7337 70.5046 20.0252 70.4289 20.2278 70.2774C20.4814 70.0831 20.6115 69.6336 20.6198 68.9323C20.6198 67.8489 20.0796 67.3073 18.9975 67.3073V70.5046H19.3533Z" fill="black"/>
<path d="M25.0304 74.5663H23.2188V65.6279H24.9794C26.0104 65.6362 26.7581 65.8403 27.2225 66.2404C28.051 66.9237 28.4693 67.8341 28.4775 68.9701C28.4775 70.0979 28.0971 70.9903 27.3378 71.6472C26.7976 72.0736 26.1882 72.286 25.513 72.286L25.0321 72.2992V74.5663H25.0304ZM25.3862 70.5046C25.7666 70.5046 26.0581 70.4289 26.2607 70.2774C26.5143 70.0831 26.6444 69.6336 26.6543 68.9323C26.6543 67.8489 26.1141 67.3073 25.0321 67.3073V70.5046H25.3862Z" fill="black"/>
<path d="M31.0485 63.1254H29.25V72.2629H31.0485V63.1254Z" fill="black"/>
<path d="M37.0807 72.263H35.3317C34.2924 72.2547 33.5398 72.0457 33.0753 71.6373C32.2469 70.9442 31.8285 70.0173 31.8203 68.8533C31.8203 67.681 32.2008 66.7442 32.96 66.0428C33.492 65.5637 34.0997 65.3234 34.7849 65.3234C35.5787 65.3234 36.3429 65.6115 37.0774 66.1894V72.263H37.0807ZM35.2822 70.5178V67.2414C35.1554 67.1706 34.9743 67.1344 34.7371 67.1344C34.4752 67.1344 34.2595 67.2464 34.0915 67.467C33.795 67.849 33.6484 68.31 33.6484 68.8533C33.6468 69.9629 34.1919 70.5178 35.2822 70.5178Z" fill="black"/>
<path d="M39.0707 65.0961C38.7923 65.0961 38.5502 64.9874 38.3477 64.7701C38.1451 64.5528 38.043 64.2976 38.043 64.0045C38.043 63.7115 38.1451 63.4563 38.3477 63.2389C38.5502 63.0216 38.7907 62.913 39.0707 62.913C39.349 62.913 39.5928 63.0216 39.7986 63.2389C40.0062 63.4563 40.1099 63.7115 40.1099 64.0045C40.1099 64.2976 40.0062 64.5528 39.7986 64.7701C39.5928 64.9874 39.349 65.0961 39.0707 65.0961ZM39.9716 72.2629H38.1714V65.6427H39.9716V72.2629Z" fill="black"/>
<path d="M46.4974 72.2629H44.7104V68.4927C44.7104 67.951 44.6495 67.5871 44.526 67.4011C44.4041 67.215 44.1817 67.1212 43.8606 67.1212C43.5905 67.1212 43.355 67.192 43.1573 67.3336C42.958 67.4752 42.8592 67.6003 42.8592 67.7073V72.2629H41.0723V65.4435H42.8345V65.8304C42.935 65.7333 43.103 65.6263 43.3352 65.511C43.5674 65.3958 43.8145 65.3381 44.0763 65.3381C44.8619 65.3381 45.4614 65.6049 45.8748 66.1383C46.2882 66.6717 46.4957 67.4126 46.4957 68.3626V72.2629H46.4974Z" fill="black"/>
</g>
<defs>
<clipPath id="clip0_2801_2967">
<rect width="54.5295" height="74.1823" fill="white" transform="translate(0.769531 0.384033)"/>
</clipPath>
</defs>
</svg>
