<svg width="115" height="77" viewBox="0 0 115 77" fill="none" xmlns="http://www.w3.org/2000/svg">
<g clip-path="url(#clip0_2801_2947)">
<path d="M51.9569 35.3859C50.8078 30.4955 48.9579 26.6465 47.4977 24.0971C47.4977 24.092 47.4927 24.0869 47.4888 24.078C46.3207 22.3449 45.6478 20.2621 45.6478 18.047C45.6478 12.7751 49.4581 8.25222 54.6563 7.39265C55.2429 7.29219 55.8384 7.24388 56.4351 7.24388C57.0319 7.24388 57.6274 7.29219 58.214 7.39265L58.3574 7.41172C63.4883 8.3336 67.2224 12.8324 67.2224 18.047C67.2224 19.9098 66.745 21.6811 65.8969 23.2286C65.7724 23.4575 65.6391 23.6876 65.4969 23.9063C65.4918 23.9114 65.4868 23.9203 65.4779 23.9305C64.0139 26.4711 62.1068 30.3824 60.9336 35.3821C68.7156 33.3667 74.3188 26.2854 74.3188 18.047C74.3188 9.02151 67.5944 1.38074 58.6495 0.271941C57.913 0.181661 57.1741 0.138428 56.4351 0.138428C55.6961 0.138428 54.9521 0.181661 54.2182 0.271941C45.272 1.38074 38.5527 9.02024 38.5527 18.047C38.5527 26.2892 44.1648 33.3807 51.9569 35.3859Z" fill="#FFCB05"/>
<path d="M51.4531 37.1254C51.4531 37.3899 51.6664 37.6036 51.9305 37.6036H60.9377C61.2018 37.6036 61.4151 37.3899 61.4151 37.1254C61.4151 36.861 61.2018 36.6473 60.9377 36.6473H51.9305C51.6664 36.6473 51.4531 36.861 51.4531 37.1254Z" fill="#FFCB05"/>
<path d="M52.4071 39.7614H60.4608C60.7249 39.7614 60.9382 39.5478 60.9382 39.2833C60.9382 39.0188 60.7249 38.8052 60.4608 38.8052H52.4071C52.143 38.8052 51.9297 39.0188 51.9297 39.2833C51.931 39.5478 52.1443 39.7614 52.4071 39.7614Z" fill="#FFCB05"/>
<path d="M54.3153 41.9191H58.5535C58.8164 41.9191 59.0309 41.7055 59.0309 41.441C59.0309 41.1765 58.8176 40.9629 58.5535 40.9629H54.3153C54.0512 40.9629 53.8379 41.1765 53.8379 41.441C53.8379 41.7055 54.0512 41.9191 54.3153 41.9191Z" fill="#FFCB05"/>
<path d="M59.6213 21.9467L56.875 21.9521L56.8774 23.1779L59.6238 23.1725L59.6213 21.9467Z" fill="black"/>
<path fill-rule="evenodd" clip-rule="evenodd" d="M57.0723 25.9752C57.0735 26.8424 57.7833 27.5507 58.6492 27.5494L59.6307 27.5481L59.6256 24.3947L58.6441 24.3959C57.7782 24.3972 57.071 25.108 57.0723 25.9752Z" fill="black"/>
<path fill-rule="evenodd" clip-rule="evenodd" d="M53.2383 15.9336L56.9179 15.9273L56.9217 18.3509L59.6147 18.3458L59.6109 16.0328C59.5144 12.5424 53.8922 12.2232 53.2383 15.9336Z" fill="black"/>
<path fill-rule="evenodd" clip-rule="evenodd" d="M56.9783 18.6179C56.3397 18.6192 55.5118 17.7978 54.731 17.9198C54.2434 17.9974 53.8308 18.3979 53.832 19.2575C53.8384 22.9705 53.86 29.7415 53.8777 35.6924C54.6992 35.8081 55.5385 35.8678 56.393 35.8678C56.487 35.8678 56.5796 35.8666 56.6736 35.8653C56.6609 31.8866 56.6469 27.7629 56.6419 25.8048C56.7663 24.5955 57.9852 23.9559 59.6269 24.0437L59.6256 23.4905L56.6381 23.4969L56.6355 21.69L59.6218 21.6849L59.6168 18.6128L56.9783 18.6179Z" fill="black"/>
<path d="M11.6071 59.0038V54.3677L18.3289 44.7395H13.8545L9.67972 51.2422L5.5037 44.7395H1.0293L7.75233 54.3677V59.0038H11.6071Z" fill="black"/>
<path d="M34.1157 55.7639H23.9276V53.662H32.4866V50.4221H23.9276V47.9565H33.9773V44.7395H20.0957V59.0038H34.1157V55.7639Z" fill="black"/>
<path d="M40.1015 51.4495L45.3098 59.0038H46.7788L51.9871 51.4495V59.0038H55.819V44.7395H51.9871L46.0449 53.6951L40.1015 44.7395H36.2695V59.0038H40.1015V51.4495Z" fill="black"/>
<path d="M76.2917 59.0038V44.7395H72.4597L66.5176 53.6951L60.5741 44.7395H56.7422V59.0038H60.5741V51.4495L65.7824 59.0038H67.2514L72.4597 51.4495V59.0038H76.2917Z" fill="black"/>
<path d="M83.1965 56.659H91.7098L92.8106 59.0025H96.8952L89.4154 44.5081H85.5149L78.0352 59.0025H82.1198L83.1965 56.659ZM87.4652 47.7861L90.242 53.4191H84.6896L87.4652 47.7861Z" fill="black"/>
<path d="M102.446 54.781H105.865L109.95 59.0038H114.768L109.996 54.4593C112.061 53.6785 113.116 51.7242 113.116 49.7723C113.116 47.2445 111.419 44.7395 108 44.7395H98.6152V59.0038H102.447V54.781H102.446ZM102.446 47.9794H107.057C108.434 47.9794 109.122 48.8759 109.122 49.7723C109.122 50.6688 108.434 51.5639 107.057 51.5639H102.446V47.9794Z" fill="black"/>
<path d="M112.093 69.0122C112.093 69.6416 111.587 70.149 110.962 70.149H64.6012C61.9069 70.149 62.0554 64.6966 57.986 64.6571C55.2841 64.6279 54.3496 66.5251 54.036 67.5741C53.9383 67.9098 53.89 68.2556 53.89 68.6053V69.0682C53.89 69.6658 53.4101 70.1503 52.8133 70.1503H43.8721L12.9221 70.1464C11.886 70.1464 11.0454 69.3047 11.0454 68.2671V60.2728H8.46289V68.9372C8.46289 71.4905 10.5325 73.5631 13.082 73.5631H51.8217C54.9134 73.5631 55.5457 72.6387 55.5457 72.6387C59.4119 75.6141 61.6948 71.8084 61.6948 71.8084C62.2078 72.9706 63.3137 73.3711 63.8952 73.5059C64.0844 73.5491 64.2774 73.5682 64.4691 73.5682H110.494C112.946 73.5682 114.768 71.5795 114.768 69.1216V65.2065H112.093V69.0122ZM59.5465 69.5412C59.2697 70.2367 58.3822 70.5355 57.5683 70.2113C56.7506 69.8871 56.3101 69.0605 56.583 68.365C56.8598 67.6695 57.7435 67.3706 58.5612 67.6949C59.3789 68.0179 59.8182 68.8444 59.5465 69.5412Z" fill="black"/>
<path d="M53.9408 63.8433C53.551 64.0226 53.0914 63.8255 52.9517 63.4186L52.6673 62.5666L51.8242 62.8566C51.8242 62.8566 52.0845 65.2026 53.824 64.8046C53.824 64.8046 55.0569 64.5871 55.0911 63.3537C55.0911 63.3537 55.7412 63.9132 56.6529 63.3906C57.1646 63.0969 57.3436 62.6162 57.4007 62.2513C57.4413 61.9957 57.4109 61.735 57.3347 61.4884L56.9576 60.2715L56.0548 60.5614L56.4599 61.7617C56.5792 62.1241 56.3888 62.5158 56.0307 62.6467C55.6689 62.779 55.2689 62.5959 55.1305 62.2373L54.7826 61.3688L53.9395 61.6588L54.3319 62.9697C54.4385 63.3181 54.2722 63.692 53.9408 63.8433Z" fill="black"/>
<path d="M106.752 74.9313H105.895C105.754 74.9313 105.639 75.0457 105.639 75.1881V76.0464C105.639 76.1876 105.753 76.3033 105.895 76.3033H106.752C106.893 76.3033 107.009 76.1888 107.009 76.0464V75.1881C107.009 75.047 106.893 74.9313 106.752 74.9313Z" fill="black"/>
<path d="M109.268 74.9313H108.411C108.27 74.9313 108.154 75.0457 108.154 75.1881V76.0464C108.154 76.1876 108.27 76.3033 108.411 76.3033H109.268C109.409 76.3033 109.524 76.1888 109.524 76.0464V75.1881C109.524 75.047 109.409 74.9313 109.268 74.9313Z" fill="black"/>
<path d="M4.04242 67.0451C4.04242 67.0451 6.03838 70.3143 4.91597 71.9736C3.79102 73.6318 0.728516 73.6114 0.728516 73.6114V76.8119C3.73007 76.7966 5.55843 75.1919 6.27708 74.4036C6.47769 74.1836 6.65545 73.9407 6.79639 73.6737C8.64633 70.1769 6.62879 67.0438 6.62879 67.0438H4.04242V67.0451Z" fill="black"/>
</g>
<defs>
<clipPath id="clip0_2801_2947">
<rect width="114.041" height="76.6735" fill="white" transform="translate(0.728516 0.138428)"/>
</clipPath>
</defs>
</svg>
