<svg width="75" height="75" viewBox="0 0 75 75" fill="none" xmlns="http://www.w3.org/2000/svg">
<g clip-path="url(#clip0_2801_2916)">
<path d="M37.4997 74.0107C17.353 74.0107 0.962891 57.6212 0.962891 37.4752C0.962891 17.3292 17.353 0.939697 37.4997 0.939697C57.6464 0.939697 74.0338 17.3292 74.0338 37.4752C74.0338 57.6212 57.6464 74.0107 37.4997 74.0107Z" fill="white"/>
<path d="M37.4997 74.0107C17.353 74.0107 0.962891 57.6212 0.962891 37.4752C0.962891 17.3292 17.353 0.939697 37.4997 0.939697C57.6464 0.939697 74.0338 17.3292 74.0338 37.4752C74.0338 57.6212 57.6464 74.0107 37.4997 74.0107Z" stroke="#ED1C24" stroke-width="1.4233" stroke-miterlimit="10"/>
<path d="M37.4997 71.3857C18.8005 71.3857 3.58789 56.1736 3.58789 37.4752C3.58789 18.7767 18.8005 3.56458 37.4997 3.56458C56.1989 3.56458 71.4115 18.7767 71.4115 37.4752C71.4088 56.1736 56.1989 71.3857 37.4997 71.3857Z" fill="white"/>
<path d="M37.4997 71.3857C18.8005 71.3857 3.58789 56.1736 3.58789 37.4752C3.58789 18.7767 18.8005 3.56458 37.4997 3.56458C56.1989 3.56458 71.4115 18.7767 71.4115 37.4752C71.4088 56.1736 56.1989 71.3857 37.4997 71.3857Z" stroke="#0BA54A" stroke-width="1.4233" stroke-miterlimit="10"/>
<path d="M37.4997 68.7608C20.2481 68.7608 6.21289 54.7261 6.21289 37.4751C6.21289 20.2241 20.2454 6.18677 37.4997 6.18677C54.7513 6.18677 68.7865 20.2214 68.7865 37.4751C68.7865 54.7261 54.7513 68.7608 37.4997 68.7608Z" fill="white"/>
<path d="M37.4997 68.7608C20.2481 68.7608 6.21289 54.7261 6.21289 37.4751C6.21289 20.2241 20.2454 6.18677 37.4997 6.18677C54.7513 6.18677 68.7865 20.2214 68.7865 37.4751C68.7865 54.7261 54.7513 68.7608 37.4997 68.7608Z" stroke="#ED1C24" stroke-width="1.4233" stroke-miterlimit="10"/>
<path d="M16.6641 51.0669L18.0657 51.0723L19.6564 54.2022L19.6456 55.863L18.3304 55.8576L18.3412 54.1482L16.6641 51.0669ZM19.9723 51.0804L21.374 51.0858L19.8589 53.5271L19.2756 52.3983L19.9723 51.0804Z" fill="black"/>
<path d="M25.7869 53.122L25.7842 53.8187L23.6939 53.8106L23.6804 55.8765L22.3652 55.8711L22.3949 51.0885L23.7101 51.0939L23.6966 53.1166L25.7869 53.122ZM26.2136 55.8846L24.2098 55.8765L24.2152 55.1393L26.219 55.1474L26.2136 55.8846ZM26.2379 51.7987L24.2341 51.7906L24.2395 51.0939L26.2433 51.102L26.2379 51.7987Z" fill="black"/>
<path d="M27.4668 55.8901L27.4911 51.8528L28.809 53.6351L28.7955 55.8982L27.4668 55.8901ZM28.9359 51.1101L30.4591 53.3975L31.5258 51.815L31.515 53.6945L30.4483 55.1258L27.4965 51.1047H27.6801L28.9359 51.1101ZM32.1065 51.1209L33.3839 51.1263L33.3542 55.909L32.0255 55.9036L32.0552 51.1209H32.1065Z" fill="black"/>
<path d="M34.8555 55.9144L34.8798 51.8771L36.1977 53.6594L36.1842 55.9225L34.8555 55.9144ZM36.3246 51.1371L37.8478 53.4245L38.9145 51.842L38.9037 53.7215L37.837 55.1528L34.8852 51.1317H35.0688L36.3246 51.1371ZM39.4951 51.1479L40.7725 51.1533L40.7428 55.936L39.4141 55.9306L39.4438 51.1479H39.4951Z" fill="black"/>
<path d="M43.7825 54.259L44.3469 54.2617L44.5873 54.9584L43.5557 54.9557L43.1803 55.9441L41.8516 55.9387L43.5124 51.8717L44.0688 53.4515L43.7825 54.259ZM44.906 51.1669L46.7937 55.9576L45.465 55.9522L43.8095 51.1642L44.906 51.1669Z" fill="black"/>
<path d="M49.2291 55.9657L47.9004 55.9603L47.9301 51.1776L49.2588 51.183L49.2291 55.9657ZM50.9521 53.9214L52.3402 55.9765L50.9386 55.9711L49.7692 54.1779L49.7746 53.3299H49.9097C50.0501 53.3299 50.1689 53.3245 50.2661 53.3137C50.3634 53.3029 50.4498 53.2894 50.5173 53.2732C50.5875 53.257 50.6442 53.2327 50.6901 53.1949C50.7361 53.1598 50.7712 53.1247 50.7955 53.095C50.8198 53.0653 50.836 53.0194 50.8468 52.9573C50.8549 52.8951 50.8603 52.8438 50.8657 52.8033C50.8684 52.7628 50.8711 52.7007 50.8738 52.6197C50.8765 52.3658 50.836 52.1903 50.755 52.1012C50.6415 51.9554 50.3796 51.8824 49.9691 51.8797H49.7854L49.7908 51.183H49.9502C50.6307 51.1857 51.1655 51.3018 51.5597 51.5314C51.7731 51.6556 51.9216 51.796 52.0054 51.9527C52.0918 52.1093 52.1323 52.3334 52.1296 52.6197C52.1296 52.833 52.1026 53.0059 52.0513 53.1355C52.0027 53.2651 51.9054 53.3947 51.7677 53.5271C51.5597 53.708 51.287 53.8403 50.9521 53.9214Z" fill="black"/>
<path d="M57.258 51.9068L53.1152 51.8933L53.1206 51.1965L57.2634 51.21L57.258 51.9068ZM55.8186 55.9873L54.5034 55.9819L54.525 52.1903L55.8402 52.1957L55.8186 55.9873Z" fill="black"/>
<path d="M16.8379 51.1642L18.2395 51.1696L19.8302 54.2995L19.8194 55.9603L18.5042 55.9549L18.515 54.2455L16.8379 51.1642ZM20.1462 51.175L21.5478 51.1804L20.0327 53.6217L19.4494 52.4928L20.1462 51.175Z" fill="#0BA54A"/>
<path d="M25.9608 53.2193L25.9581 53.916L23.8678 53.9079L23.8543 55.9712L22.5391 55.9657L22.5688 51.1831L23.884 51.1885L23.8705 53.2112L25.9608 53.2193ZM26.3875 55.982L24.3836 55.9739L24.389 55.2366L26.3929 55.2447L26.3875 55.982ZM26.4118 51.896L24.4079 51.8879L24.4106 51.1912L26.4145 51.1993L26.4118 51.896Z" fill="#0BA54A"/>
<path d="M27.6406 55.9845L27.6649 51.9472L28.9828 53.7296L28.9693 55.9926L27.6406 55.9845ZM29.1071 51.2073L30.6302 53.4947L31.697 51.9121L31.6862 53.7917L30.6194 55.223L27.6676 51.2019H27.8513L29.1071 51.2073ZM32.2803 51.2181L33.5577 51.2235L33.528 56.0061L32.1993 56.0008L32.229 51.2181H32.2803Z" fill="#0BA54A"/>
<path d="M35.0293 56.0116L35.0536 51.9744L36.3715 53.7567L36.358 56.0197L35.0293 56.0116ZM36.4957 51.2344L38.0189 53.5218L39.0856 51.9392L39.0748 53.8188L38.0081 55.2501L35.0563 51.229H35.2399L36.4957 51.2344ZM39.669 51.2452L40.9464 51.2506L40.9167 56.0333L39.588 56.0279L39.6177 51.2452H39.669Z" fill="#0BA54A"/>
<path d="M43.9524 54.3535L44.5169 54.3562L44.7572 55.0529L43.7256 55.0502L43.3502 56.0386L42.0215 56.0332L43.6824 51.9662L44.2387 53.546L43.9524 54.3535ZM45.0786 51.2641L46.9663 56.0548L45.6376 56.0494L43.9821 51.2614L45.0786 51.2641Z" fill="#0BA54A"/>
<path d="M49.401 56.0601L48.0723 56.0547L48.102 51.2721L49.4307 51.2775L49.401 56.0601ZM51.1213 54.0185L52.5094 56.0736L51.1078 56.0682L49.9384 54.2751L49.9438 53.4271H50.0788C50.2193 53.4271 50.3381 53.4217 50.4353 53.4109C50.5325 53.4001 50.619 53.3866 50.6865 53.3704C50.7567 53.3542 50.8134 53.3299 50.8593 53.2921C50.9052 53.257 50.9403 53.2219 50.9646 53.1922C50.9889 53.1625 51.0052 53.1166 51.016 53.0544C51.0241 52.9923 51.0295 52.941 51.0349 52.9005C51.0376 52.86 51.0403 52.7979 51.043 52.7169C51.0457 52.463 51.0052 52.2875 50.9241 52.1984C50.8107 52.0526 50.5487 51.9796 50.1383 51.9769H49.9546L49.96 51.2802H50.1193C50.7999 51.2829 51.3346 51.399 51.7289 51.6286C51.9423 51.7528 52.0908 51.8932 52.1745 52.0498C52.2609 52.2065 52.3015 52.4306 52.2988 52.7169C52.2988 52.9302 52.2717 53.1031 52.2204 53.2327C52.1718 53.3623 52.0746 53.4919 51.9369 53.6243C51.7289 53.8052 51.4589 53.9375 51.1213 54.0185Z" fill="#0BA54A"/>
<path d="M57.4299 52.0041L53.2871 51.9906L53.2925 51.2938L57.4353 51.3073L57.4299 52.0041ZM55.9904 56.0846L54.6752 56.0792L54.6968 52.2876L56.012 52.293L55.9904 56.0846Z" fill="#ED1C24"/>
<path d="M51.7132 44.672C51.7051 46.4868 50.2279 47.9505 48.4131 47.9424C46.5983 47.9343 45.1345 46.4571 45.1426 44.6423C45.1507 42.8276 46.628 41.3639 48.4428 41.372C50.2549 41.3801 51.7213 42.8573 51.7132 44.672Z" fill="#010101"/>
<path d="M34.9164 44.5938C34.9083 46.4085 33.431 47.8722 31.6162 47.8641C29.8014 47.856 28.3376 46.3788 28.3457 44.5641C28.3538 42.7493 29.8311 41.2856 31.6459 41.2937C33.4607 41.3018 34.9245 42.779 34.9164 44.5938Z" fill="#010101"/>
<path d="M34.5811 39.7274L29.674 39.7058L24.2215 23.4486L24.1702 23.2865L20.4406 23.2703L18.9688 18.7902L27.527 18.8307L29.0394 23.3082L29.0934 23.4702L30.3708 27.2536L34.5811 39.7274Z" fill="#010101"/>
<path d="M51.3192 39.8057L46.3689 39.7813L42.2045 27.3076L39.377 27.2968L37.7539 22.4952L45.4696 22.5303L47.0954 27.3319L51.3192 39.8057Z" fill="#010101"/>
<path d="M42.8883 39.7651L38.0109 39.7435L33.7899 27.2697L31.1648 27.2589L29.5391 22.4574L37.0414 22.4925L38.6672 27.2914L42.8883 39.7651Z" fill="#010101"/>
<path d="M52.4027 45.0177C52.3946 46.8325 50.9174 48.2962 49.1025 48.2881C47.2877 48.28 45.824 46.8028 45.8321 44.988C45.8402 43.1733 47.3174 41.7096 49.1322 41.7177C50.9471 41.7231 52.4108 43.203 52.4027 45.0177Z" fill="#EDA03F"/>
<path d="M35.6058 44.9394C35.5977 46.7541 34.1205 48.2178 32.3057 48.2097C30.4908 48.2016 29.0271 46.7244 29.0352 44.9097C29.0433 43.0949 30.5205 41.6312 32.3354 41.6393C34.1502 41.6474 35.6139 43.1246 35.6058 44.9394Z" fill="#EDA03F"/>
<path d="M35.2725 40.0731L30.3655 40.0488L24.9129 23.7916L24.8589 23.6323L21.1293 23.6133L19.6602 19.1359L28.2158 19.1764L29.7308 23.6539L29.7821 23.8132L31.0595 27.5993L35.2725 40.0731Z" fill="#EDA03F"/>
<path d="M52.0086 40.1487L47.0584 40.127L42.894 27.6533L40.0664 27.6398L38.4434 22.8409L46.1591 22.8761L47.7875 27.6749L52.0086 40.1487Z" fill="#EDA03F"/>
<path d="M43.5804 40.1108L38.7004 40.0892L34.4793 27.6154L31.857 27.6019L30.2285 22.8031L37.7309 22.8382L39.3593 27.6371L43.5804 40.1108Z" fill="#EDA03F"/>
</g>
<defs>
<clipPath id="clip0_2801_2916">
<rect width="74.4591" height="74.4591" fill="white" transform="translate(0.269531 0.245605)"/>
</clipPath>
</defs>
</svg>
