<svg width="76" height="75" viewBox="0 0 76 75" fill="none" xmlns="http://www.w3.org/2000/svg">
<path d="M0.618269 37.1834C0.618269 36.7689 0.617433 36.3545 0.618603 35.94C0.619272 35.7161 0.620442 35.4927 0.667756 35.2713C0.686313 35.1849 0.683805 35.0933 0.684976 35.0038C0.688319 34.7354 0.677787 34.4669 0.743658 34.202C0.764723 34.1173 0.752184 34.0237 0.753522 33.9342C0.755528 33.7885 0.756364 33.6433 0.801671 33.5021C0.815213 33.4599 0.822402 33.4147 0.825244 33.3703C0.869381 32.6676 0.987414 31.9747 1.0899 31.2793C1.20743 30.4822 1.38097 29.6974 1.55334 28.9115C1.72838 28.1136 1.96027 27.3309 2.16323 26.5405C2.24649 26.2164 2.36218 25.9007 2.46266 25.581C2.52301 25.389 2.58102 25.1964 2.64221 25.0048C2.67615 24.8982 2.70742 24.7901 2.75172 24.6877C2.94298 24.2467 3.08492 23.7867 3.26398 23.3416C3.46778 22.8346 3.7025 22.3403 3.91566 21.837C4.06814 21.4769 4.23114 21.1231 4.41638 20.7785C4.71765 20.2179 5.00371 19.649 5.3033 19.0876C5.66643 18.407 6.07403 17.7531 6.49751 17.1089C6.70582 16.7921 6.89624 16.4629 7.11074 16.1504C7.32558 15.8374 7.56131 15.5391 7.78567 15.2325C7.89768 15.0792 8.00401 14.9217 8.11402 14.7668C8.39222 14.3753 8.70034 14.0077 9.00863 13.6404C9.07316 13.5636 9.13419 13.4836 9.19822 13.4063C9.41807 13.1403 9.60983 12.8512 9.87682 12.6248C10.0036 12.5174 10.1156 12.3886 10.2182 12.257C10.5347 11.851 10.9007 11.4945 11.273 11.1417C11.5315 10.8967 11.7669 10.6269 12.0128 10.3684C12.0666 10.3118 12.1179 10.2519 12.1761 10.2003C12.6426 9.78579 13.1012 9.36168 13.58 8.96211C14.2133 8.43362 14.8477 7.90546 15.5289 7.43747C15.7858 7.26081 16.0312 7.06749 16.2827 6.88259C17.0021 6.35375 17.7688 5.89771 18.5238 5.42468C19.0138 5.11774 19.5333 4.85837 20.0407 4.57983C20.3428 4.41392 20.6429 4.24364 20.9513 4.09067C21.2999 3.9177 21.661 3.77027 22.0091 3.59646C22.6772 3.26296 23.3854 3.02729 24.0675 2.72757C24.4027 2.58032 24.7585 2.48064 25.1044 2.35809C25.9014 2.07569 26.7064 1.81884 27.5239 1.60435C28.2229 1.42095 28.9221 1.23336 29.6298 1.09047C30.3042 0.954148 30.9751 0.794288 31.6592 0.705701C31.9674 0.665862 32.2713 0.593749 32.5781 0.542983C32.7642 0.512222 32.9549 0.509196 33.142 0.496084C33.4861 0.471878 33.8226 0.379929 34.1699 0.391528C34.2575 0.394386 34.3462 0.372365 34.4342 0.359926C34.4892 0.352025 34.544 0.330341 34.5982 0.33219C35.189 0.351857 35.773 0.246629 36.3643 0.24646C37.5338 0.246124 38.7033 0.239737 39.8727 0.259908C39.9954 0.262093 40.1175 0.262934 40.2373 0.295209C40.2801 0.306639 40.3253 0.316893 40.3691 0.315884C40.7705 0.305631 41.1669 0.373542 41.5661 0.394218C41.6216 0.397075 41.6807 0.386653 41.7325 0.401782C42.0241 0.486839 42.3278 0.481796 42.6249 0.514239C43.0787 0.563659 43.5285 0.6272 43.9761 0.715114C44.6953 0.856316 45.4182 0.979363 46.1353 1.13099C47.1469 1.34481 48.1506 1.59779 49.1426 1.88776C49.6744 2.04325 50.2076 2.20529 50.723 2.41726C50.8867 2.48467 51.0664 2.51274 51.2304 2.57931C52.003 2.89298 52.7824 3.19017 53.5381 3.54486C53.8999 3.71463 54.2725 3.8629 54.6263 4.0478C54.8921 4.18682 55.1556 4.33071 55.4226 4.46838C56.2838 4.91249 57.1067 5.42216 57.9286 5.93553C58.4209 6.24298 58.8925 6.57968 59.372 6.90461C59.9162 7.27324 60.4502 7.66071 60.9616 8.07389C61.3776 8.40991 61.8044 8.7335 62.2098 9.08129C62.4625 9.29814 62.7087 9.52541 62.9567 9.74914C63.0807 9.8611 63.2116 9.96532 63.3378 10.0749C63.4305 10.1554 63.5256 10.2338 63.6102 10.3222C64.0118 10.7414 64.413 11.1605 64.8432 11.5511C64.9993 11.693 65.1384 11.8562 65.2722 12.0206C65.4909 12.2894 65.7282 12.5392 65.9723 12.7845C66.1368 12.9497 66.2746 13.1422 66.4234 13.323C66.707 13.6676 66.9835 14.0186 67.2565 14.371C67.7413 14.9966 68.2096 15.6354 68.6486 16.2972C69.0069 16.8375 69.3423 17.3917 69.6972 17.9336C69.9906 18.3814 70.2561 18.8479 70.4992 19.3263C70.5701 19.4658 70.6507 19.6001 70.7238 19.7386C70.8797 20.0341 71.0339 20.3307 71.188 20.6272C71.291 20.8254 71.402 21.0199 71.4928 21.2236C71.7339 21.764 71.9524 22.3149 72.2052 22.8496C72.5021 23.4774 72.6979 24.1433 72.9597 24.7841C73.0944 25.1137 73.1929 25.4591 73.2949 25.8012C73.4768 26.4116 73.6589 27.0221 73.8227 27.6375C74.0671 28.556 74.2803 29.4829 74.4639 30.4155C74.565 30.9292 74.6227 31.4516 74.6994 31.9704C74.7272 32.1581 74.7638 32.3437 74.7813 32.534C74.8131 32.8786 74.8698 33.2207 74.9146 33.5641C74.9261 33.6525 74.9343 33.7416 74.9405 33.8305C74.9444 33.8863 74.9335 33.944 74.9433 33.9983C75.0378 34.5179 74.9803 35.0492 75.0659 35.5697C75.0803 35.6572 75.0768 35.7482 75.0768 35.8376C75.0774 36.7225 75.0769 37.6073 75.0774 38.4924C75.0776 38.627 75.0754 38.7606 75.0463 38.8933C75.0321 38.9585 75.0273 39.0264 75.0231 39.0933C74.9948 39.5507 74.9681 40.0083 74.9408 40.4656C74.9382 40.5104 74.9405 40.5559 74.9325 40.5994C74.8186 41.215 74.7725 41.8397 74.6902 42.4594C74.5578 43.4573 74.3426 44.4379 74.1154 45.4169C73.9638 46.0707 73.8214 46.7262 73.6346 47.3711C73.5477 47.6713 73.4529 47.9692 73.3705 48.2705C73.1252 49.1663 72.786 50.03 72.4779 50.9038C72.2739 51.4824 72.0059 52.0383 71.7687 52.6051C71.5916 53.0282 71.3584 53.4241 71.1725 53.8419C70.9404 54.3636 70.6584 54.8578 70.3899 55.359C70.1369 55.8312 69.8614 56.292 69.578 56.7465C69.348 57.1155 69.1398 57.4981 68.8844 57.8517C68.5314 58.3407 68.1971 58.8432 67.8453 59.3332C67.585 59.6958 67.3142 60.0511 67.0398 60.4033C66.8066 60.7025 66.5632 60.9936 66.3213 61.2856C66.1362 61.509 65.9501 61.7317 65.7578 61.9488C65.1287 62.6588 64.4687 63.3393 63.7867 63.998C63.7627 64.0212 63.7354 64.0416 63.7132 64.0664C63.3776 64.442 62.9884 64.7597 62.6223 65.1024C62.2563 65.4452 61.838 65.7276 61.5023 66.1033C61.4802 66.128 61.4515 66.1468 61.4249 66.167C61.0701 66.4373 60.7152 66.7072 60.3604 66.9777C60.1123 67.1668 59.8773 67.3721 59.6188 67.5486C59.0942 67.9068 58.5856 68.2892 58.0553 68.6387C57.4972 69.0065 56.9239 69.3509 56.3532 69.6985C55.9827 69.9241 55.6109 70.149 55.2283 70.3529C54.7572 70.6041 54.2751 70.8342 53.7967 71.0717C52.8495 71.5419 51.8688 71.9332 50.8819 72.3086C49.5288 72.8233 48.143 73.2299 46.7383 73.5775C45.7983 73.8102 44.8507 74.0032 43.8999 74.182C43.3766 74.2805 42.8491 74.3508 42.3198 74.4141C42.0235 74.4496 41.7243 74.4624 41.4274 74.5118C41.0903 74.568 40.7419 74.5854 40.399 74.5969C40.0093 74.61 39.6206 74.6307 39.2332 74.668C38.822 74.7075 38.4105 74.7043 37.9989 74.7051C37.3198 74.7066 36.6407 74.7112 35.9656 74.6132C35.8345 74.5942 35.6988 74.6068 35.565 74.6061C35.3868 74.6049 35.2094 74.6046 35.0342 74.5585C34.9603 74.539 34.8799 74.5416 34.8023 74.5397C34.591 74.5345 34.3823 74.5278 34.1729 74.479C33.9687 74.4316 33.7534 74.4331 33.5447 74.4155C33.1124 74.3792 32.6856 74.3101 32.2574 74.2499C31.8724 74.1958 31.4897 74.1205 31.1089 74.0406C30.4013 73.8924 29.6868 73.7755 28.9879 73.5869C28.1505 73.361 27.3044 73.161 26.4818 72.8888C25.6068 72.5992 24.7341 72.2953 23.8853 71.9297C23.5787 71.7977 23.2655 71.6812 22.9597 71.5473C22.2574 71.2391 21.5656 70.9093 20.8848 70.5541C19.9663 70.0749 19.0762 69.5503 18.1991 68.9986C17.6322 68.6419 17.0989 68.2379 16.539 67.8725C16.0062 67.5249 15.5073 67.1302 15.0029 66.7436C14.711 66.5198 14.4274 66.2845 14.1486 66.0444C13.6079 65.5791 13.0654 65.1155 12.5389 64.6344C12.2017 64.3263 11.8884 63.9911 11.5697 63.663C11.1887 63.2707 10.7791 62.9071 10.4218 62.4912C10.1749 62.2038 9.93467 61.9094 9.67252 61.6366C9.36223 61.3139 9.11279 60.941 8.80734 60.6154C8.77674 60.5828 8.74749 60.5488 8.72074 60.513C8.17321 59.7793 7.60093 59.0637 7.10907 58.2891C7.06711 58.2231 7.02448 58.1572 6.97733 58.095C6.55168 57.533 6.19507 56.9254 5.83612 56.321C5.3344 55.4764 4.8616 54.6142 4.42943 53.7312C4.13535 53.1302 3.85046 52.5242 3.61339 51.8967C3.49904 51.594 3.36145 51.3 3.23422 51.0021C3.21666 50.9611 3.19459 50.9216 3.18022 50.8794C3.00233 50.362 2.82511 49.8443 2.6484 49.3264C2.35599 48.4694 2.09368 47.6029 1.87032 46.7256C1.62205 45.7506 1.37428 44.7746 1.19539 43.7837C1.10428 43.2786 1.04309 42.7681 0.966516 42.2602C0.92823 42.0066 0.861022 41.7544 0.850991 41.4998C0.83678 41.1416 0.765559 40.7912 0.744828 40.4337C0.721422 40.0326 0.712561 39.6289 0.671434 39.2308C0.615928 38.6934 0.625123 38.1577 0.618102 37.6208C0.616263 37.4752 0.617767 37.3295 0.617767 37.1839C0.617934 37.1834 0.618102 37.1834 0.618269 37.1834ZM2.29915 37.2496C2.30968 38.2347 2.34061 39.2187 2.43574 40.1999C2.44009 40.2444 2.43925 40.2895 2.4431 40.334C2.47352 40.679 2.49375 41.0254 2.53822 41.3687C2.59557 41.8116 2.68418 42.2507 2.73818 42.6939C2.81107 43.292 2.93295 43.8817 3.05316 44.4699C3.22268 45.2994 3.43919 46.1189 3.67375 46.9332C4.20924 48.7915 4.85675 50.6069 5.67312 52.361C6.41993 53.9657 7.28094 55.5048 8.25931 56.9773C8.95212 58.0202 9.69911 59.0224 10.5004 59.9844C10.951 60.5253 11.4076 61.0617 11.8909 61.5722C13.1746 62.9281 14.5321 64.2043 16.0008 65.3588C17.1863 66.2907 18.4182 67.154 19.7055 67.9367C21.4609 69.0038 23.3015 69.8957 25.2166 70.6345C26.3573 71.0746 27.5167 71.4541 28.6969 71.773C29.3492 71.9493 30.0071 72.1001 30.6667 72.2422C31.1333 72.3427 31.6076 72.4069 32.077 72.4945C32.4263 72.5597 32.7789 72.6012 33.1285 72.659C33.4137 72.7063 33.7016 72.7344 33.9868 72.7673C34.3385 72.8078 34.6905 72.8843 35.0492 72.8564C35.0927 72.853 35.1387 72.8619 35.1813 72.8734C35.3667 72.9231 35.5562 72.9199 35.7456 72.923C35.9236 72.926 36.1018 72.931 36.2797 72.9394C36.5688 72.9532 36.8579 72.9712 37.1469 72.9865C38.1948 73.0416 39.2396 72.9448 40.2853 72.9129C40.606 72.9031 40.9261 72.8436 41.2495 72.8428C41.2716 72.8428 41.2945 72.8404 41.3157 72.8342C41.6173 72.746 41.9326 72.7619 42.2404 72.7212C42.6575 72.6661 43.0766 72.6135 43.4904 72.5432C44.1899 72.4246 44.8854 72.2803 45.5791 72.1265C46.6405 71.8912 47.6881 71.6074 48.7212 71.2717C51.4205 70.3943 53.977 69.2057 56.3838 67.6926C57.8966 66.7415 59.3349 65.6879 60.6993 64.5326C61.5605 63.8034 62.373 63.0217 63.1673 62.2196C63.655 61.7272 64.1278 61.2212 64.5817 60.6985C65.0134 60.2012 65.4303 59.691 65.8361 59.1713C66.4204 58.4226 66.9778 57.6547 67.4992 56.8615C68.5751 55.2251 69.5005 53.5047 70.2959 51.7137C70.9082 50.3353 71.4099 48.9164 71.8442 47.4724C72.3294 45.8587 72.7097 44.2216 72.9597 42.5536C72.9878 42.3661 73.0065 42.1772 73.0379 41.9901C73.0841 41.7156 73.1357 41.4401 73.1525 41.1631C73.1739 40.8059 73.2155 40.4502 73.2501 40.0953C73.3044 39.5379 73.3434 38.979 73.3629 38.4213C73.4082 37.134 73.3762 35.8462 73.2967 34.5601C73.2919 34.4819 73.2834 34.4036 73.2688 34.3267C73.2041 33.9857 73.2277 33.6367 73.1633 33.294C73.11 33.0102 73.115 32.7159 73.0749 32.4289C73.0194 32.0322 72.9363 31.6396 72.8821 31.2427C72.7734 30.4454 72.5835 29.6646 72.3995 28.8839C72.1794 27.9512 71.9106 27.0307 71.6098 26.1204C70.797 23.6598 69.717 21.3218 68.395 19.0977C67.2043 17.0943 65.8403 15.2183 64.2781 13.4885C63.4457 12.5666 62.5644 11.6962 61.6364 10.874C60.7339 10.0746 59.7947 9.3205 58.8171 8.61483C57.2404 7.47664 55.5856 6.46806 53.8452 5.60421C52.2596 4.81718 50.6247 4.15135 48.9342 3.62689C48.1721 3.39054 47.4079 3.16328 46.6262 2.99888C45.9969 2.86659 45.3716 2.71479 44.7428 2.57998C44.4395 2.51493 44.1328 2.46567 43.8266 2.41525C43.5428 2.36852 43.2579 2.32767 42.973 2.28783C42.7423 2.25555 42.5114 2.20916 42.2797 2.20344C41.9451 2.19504 41.6161 2.13671 41.2851 2.10544C40.7641 2.05619 40.241 2.0419 39.7211 1.98475C39.6659 1.9787 39.6099 1.97702 39.5542 1.97634C38.9529 1.96895 38.3513 1.95769 37.75 1.95685C37.2711 1.95617 36.7922 1.96357 36.3135 1.97685C36.002 1.98542 35.6911 2.01047 35.3799 2.02896C35.28 2.03484 35.1796 2.05434 35.0805 2.04964C34.6774 2.0303 34.28 2.10191 33.8838 2.14562C33.3888 2.20025 32.8917 2.24648 32.3984 2.32868C31.951 2.40314 31.5019 2.46988 31.0542 2.54535C30.2988 2.67277 29.5552 2.8528 28.8112 3.0288C28.0566 3.20732 27.3134 3.43391 26.575 3.67463C24.7752 4.26095 23.0301 4.97923 21.3432 5.84055C20.2605 6.39326 19.2111 7.00412 18.1923 7.66777C16.8073 8.56994 15.4951 9.56962 14.2509 10.6591C13.5111 11.3067 12.8226 12.0085 12.129 12.705C11.7187 13.117 11.3338 13.5523 10.9515 13.9887C10.4443 14.5678 9.96727 15.1731 9.50032 15.7867C8.27937 17.3908 7.21423 19.0938 6.28451 20.8822C4.98247 23.387 3.99591 26.0137 3.31998 28.7577C3.20814 29.2116 3.10649 29.6674 3.02239 30.128C2.95251 30.5108 2.87928 30.8929 2.81057 31.276C2.74737 31.628 2.69588 31.9808 2.6499 32.335C2.61095 32.634 2.54291 32.9309 2.52669 33.2308C2.50679 33.5997 2.41585 33.9616 2.4329 34.3335C2.43591 34.3995 2.42387 34.4683 2.40815 34.533C2.37321 34.6764 2.37422 34.8215 2.37204 34.9672C2.36953 35.1239 2.37288 35.2815 2.35766 35.4372C2.29831 36.0398 2.29698 36.6445 2.29915 37.2496Z" fill="#FAD91B"/>
<path d="M2.29944 37.2496C2.2971 36.6445 2.2986 36.0398 2.35762 35.4367C2.37284 35.281 2.36966 35.1234 2.372 34.9667C2.37434 34.8211 2.37334 34.6759 2.40811 34.5325C2.42383 34.4676 2.43586 34.399 2.43285 34.333C2.41597 33.9613 2.50675 33.5992 2.52665 33.2303C2.54286 32.9304 2.61091 32.6335 2.64986 32.3345C2.696 31.9803 2.7475 31.6273 2.81053 31.2755C2.87924 30.8924 2.95263 30.5103 3.02235 30.1275C3.10644 29.6669 3.20809 29.2111 3.31994 28.7572C3.99587 26.0134 4.98243 23.3867 6.28447 20.8817C7.21419 19.0933 8.27933 17.3903 9.50028 15.7862C9.96723 15.1726 10.4444 14.5673 10.9514 13.9882C11.3338 13.5518 11.7187 13.1165 12.1289 12.7045C12.8226 12.008 13.5112 11.3062 14.2509 10.6585C15.495 9.56911 16.8074 8.56927 18.1922 7.66726C19.2111 7.00362 20.2607 6.39275 21.3432 5.84005C23.0301 4.97872 24.7752 4.26044 26.5749 3.67412C27.3134 3.43358 28.0565 3.20698 28.8112 3.02829C29.5552 2.8523 30.2988 2.67243 31.0541 2.54485C31.5019 2.4692 31.9508 2.40264 32.3983 2.32817C32.8915 2.24597 33.3887 2.19975 33.8838 2.14511C34.28 2.10141 34.6774 2.0298 35.0805 2.04913C35.1798 2.05384 35.2801 2.03451 35.3799 2.02845C35.691 2.00996 36.002 1.98492 36.3135 1.97634C36.7921 1.96306 37.2711 1.95567 37.7499 1.95634C38.3515 1.95718 38.9528 1.96861 39.5542 1.97584C39.6099 1.97651 39.6657 1.97819 39.721 1.98425C40.241 2.04123 40.7641 2.05569 41.285 2.10494C41.6161 2.1362 41.9451 2.19453 42.2796 2.20294C42.5114 2.20865 42.7422 2.25505 42.973 2.28732C43.2578 2.32733 43.5427 2.36801 43.8266 2.41474C44.1327 2.46517 44.4395 2.51442 44.7428 2.57948C45.3716 2.71429 45.9968 2.86608 46.6261 2.99837C47.4079 3.16277 48.1723 3.39004 48.9341 3.62638C50.6247 4.15085 52.2596 4.81668 53.8452 5.60371C55.5856 6.46756 57.2402 7.47614 58.8171 8.61432C59.7946 9.31999 60.7339 10.0741 61.6364 10.8735C62.5644 11.6957 63.4456 12.5661 64.278 13.488C65.8402 15.2178 67.2041 17.0938 68.395 19.0972C69.7169 21.3213 70.7968 23.6595 71.6098 26.1199C71.9106 27.0302 72.1794 27.9508 72.3994 28.8834C72.5835 29.6641 72.7734 30.4449 72.8821 31.2422C72.9362 31.639 73.0193 32.0317 73.0748 32.4284C73.115 32.7154 73.11 33.0097 73.1633 33.2935C73.2277 33.6362 73.2041 33.9852 73.2688 34.3262C73.2833 34.4031 73.2918 34.4816 73.2967 34.5596C73.3761 35.8457 73.4082 37.1335 73.3629 38.4207C73.3433 38.9785 73.3044 39.5372 73.2501 40.0948C73.2154 40.4497 73.174 40.8054 73.1524 41.1626C73.1357 41.4396 73.0842 41.7151 73.0379 41.9896C73.0065 42.1767 72.9877 42.3656 72.9596 42.5531C72.7097 44.2211 72.3294 45.8584 71.8442 47.4719C71.41 48.9159 70.9081 50.3349 70.2959 51.7132C69.5004 53.5042 68.575 55.2245 67.4992 56.861C66.9778 57.6542 66.4204 58.4221 65.836 59.1708C65.4303 59.6905 65.0133 60.2007 64.5817 60.6979C64.1278 61.2207 63.655 61.7267 63.1673 62.2191C62.373 63.0212 61.5605 63.8029 60.6993 64.5321C59.3349 65.6874 57.8966 66.741 56.3837 67.6921C53.9771 69.2052 51.4205 70.3938 48.7211 71.2712C47.6879 71.6071 46.6405 71.8908 45.579 72.126C44.8854 72.2798 44.1899 72.424 43.4904 72.5427C43.0766 72.613 42.6575 72.6656 42.2403 72.7207C41.9327 72.7614 41.6172 72.7454 41.3156 72.8337C41.2946 72.8399 41.2715 72.8423 41.2494 72.8423C40.9261 72.8433 40.6058 72.9026 40.2853 72.9124C39.2394 72.9445 38.1946 73.0411 37.1469 72.986C36.8578 72.9709 36.5689 72.9529 36.2797 72.9389C36.1018 72.9304 35.9236 72.9253 35.7455 72.9225C35.5561 72.9193 35.3667 72.9226 35.1813 72.8729C35.1386 72.8614 35.0927 72.8525 35.0492 72.8559C34.6904 72.8838 34.3387 72.8073 33.9867 72.7668C33.7015 72.7338 33.4136 72.7056 33.1284 72.6585C32.7788 72.6007 32.4262 72.5592 32.077 72.494C31.6075 72.4064 31.1332 72.3422 30.6666 72.2417C30.0069 72.0996 29.349 71.9488 28.6968 71.7725C27.5167 71.4536 26.3572 71.0741 25.2165 70.634C23.3016 69.8952 21.4611 69.0034 19.7054 67.9362C18.4179 67.1535 17.1863 66.2902 16.0008 65.3583C14.5321 64.2036 13.1745 62.9276 11.8909 61.5717C11.4075 61.0612 10.9511 60.525 10.5004 59.9839C9.69906 59.0219 8.95225 58.0197 8.25926 56.9768C7.28089 55.5043 6.41989 53.9652 5.67307 52.3605C4.85671 50.6066 4.2092 48.791 3.6737 46.9327C3.43914 46.1184 3.22264 45.2989 3.05311 44.4694C2.93291 43.8812 2.81103 43.2915 2.73813 42.6934C2.68413 42.2502 2.59553 41.8111 2.53818 41.3682C2.49371 41.0249 2.47348 40.6786 2.44305 40.3335C2.43904 40.289 2.44004 40.2439 2.4357 40.1994C2.3409 39.2187 2.30997 38.2345 2.29944 37.2496ZM38.4655 35.2494C38.5855 35.2398 38.7099 35.2609 38.8221 35.1977L38.8477 35.202L38.8662 35.1839C39.1103 35.179 39.3437 35.1084 39.5819 35.0676L39.5988 35.0639C39.8195 35.018 40.0499 35.0203 40.2619 34.9307C40.3829 34.9479 40.501 34.9485 40.6053 34.8699C40.7872 34.8831 40.9652 34.8702 41.1332 34.7904C41.177 34.7932 41.2219 34.8031 41.2645 34.7976C41.6891 34.7436 42.1135 34.6877 42.5378 34.63C42.5687 34.6258 42.5973 34.6041 42.627 34.5905C42.6658 34.5851 42.7045 34.5797 42.7432 34.5744C42.8762 34.57 43.0099 34.5745 43.1416 34.5597C43.6492 34.5024 44.1556 34.4338 44.6674 34.4221C44.7562 34.42 44.8453 34.414 44.9335 34.4029C45.2542 34.3626 45.5759 34.3496 45.8987 34.3503C46.3768 34.3511 46.8532 34.3199 47.3273 34.2585C47.3748 34.2514 47.406 34.224 47.4096 34.1765C47.4144 34.1124 47.4126 34.0479 47.4136 33.9835C47.4413 33.9492 47.4661 33.9137 47.4557 33.8657C47.4975 33.7988 47.4943 33.7261 47.4819 33.6525C47.5177 33.5928 47.5533 33.533 47.5388 33.4584C47.567 33.4014 47.57 33.3415 47.5577 33.2802C47.5993 33.235 47.623 33.1837 47.6122 33.1203C47.6351 33.0828 47.6368 33.0435 47.6225 33.0026C47.6588 32.9342 47.6934 32.8653 47.6832 32.7838C47.6995 32.7307 47.7188 32.6784 47.7314 32.6243C47.7543 32.5264 47.7336 32.4938 47.6446 32.4987C47.3556 32.5143 47.0667 32.5338 46.7778 32.5522C46.198 32.5888 45.6207 32.5263 45.0422 32.5125C44.329 32.4955 43.6213 32.413 42.9146 32.3313C42.2412 32.2534 41.5653 32.1889 40.8977 32.0621C40.4077 31.9692 39.915 31.8905 39.4246 31.7997C38.9769 31.7169 38.5307 31.6263 38.0838 31.539C37.6259 31.4498 37.1686 31.3577 36.7102 31.2718C36.1433 31.1655 35.5768 31.0558 35.0077 30.9633C34.3602 30.8581 33.7104 30.7671 33.0607 30.6764C32.7745 30.6364 32.4864 30.6066 32.1984 30.5821C31.8439 30.5518 31.4895 30.519 31.1356 30.4861C30.481 30.4252 29.8253 30.3971 29.1696 30.3716C28.6358 30.3508 28.1007 30.3624 27.5662 30.3625C27.4321 30.3625 27.4152 30.3834 27.4361 30.5239C27.5247 31.1205 27.6163 31.7164 27.7069 32.3126C27.6894 32.3946 27.7114 32.4669 27.7599 32.5328C27.7258 32.7376 27.7937 32.9319 27.8209 33.1304C27.8771 33.5392 27.9298 33.9487 27.9895 34.357C28.0523 34.7878 28.1244 35.2173 28.1869 35.6482C28.2224 35.8916 28.2468 35.9222 28.4959 35.9588C28.529 35.9637 28.5623 35.968 28.5955 35.9696C29.0737 35.9891 29.5503 36.04 30.03 36.0284C30.8537 36.0086 31.6774 35.9801 32.5011 35.9827C33.1262 35.9847 33.7457 35.9109 34.3686 35.8879C34.6236 35.8785 34.8783 35.8445 35.1316 35.8099C35.4393 35.768 35.7452 35.7137 36.052 35.6648C36.1667 35.6887 36.2698 35.6525 36.3706 35.6034C36.3982 35.6009 36.4258 35.5984 36.4534 35.5959C36.7057 35.5925 36.9506 35.5399 37.1949 35.4844C37.2047 35.4822 37.2127 35.472 37.2216 35.4654L37.2427 35.4727L37.2597 35.4584C37.3711 35.4654 37.4839 35.4816 37.5814 35.4048C37.6078 35.3985 37.6342 35.3923 37.6606 35.3863C37.7808 35.3905 37.9032 35.4078 38.0104 35.3299L38.04 35.3347L38.0642 35.317C38.1844 35.3168 38.3068 35.3323 38.4167 35.2635L38.4444 35.2678L38.4655 35.2494ZM51.5272 45.7941C51.6092 45.7741 51.6101 45.7254 51.6241 45.6864C51.8301 45.1159 52.2295 44.7304 52.7714 44.4863C53.3692 44.2169 53.9893 44.1562 54.63 44.3001C55.5674 44.5107 56.2998 45.0167 56.8077 45.8377C57.1565 46.4011 57.324 47.0164 57.319 47.6847C57.3151 48.2085 57.2165 48.7064 56.9904 49.1754C56.6303 49.9224 56.0497 50.4472 55.305 50.7836C54.3436 51.218 53.3361 51.3176 52.3009 51.14C51.5616 51.013 50.8604 50.769 50.1937 50.4234C49.3063 49.9631 48.5156 49.3662 47.7805 48.6923C47.1715 48.1341 46.5709 47.5666 45.9616 47.0088C45.4406 46.5321 44.87 46.1226 44.2472 45.791C43.2722 45.2719 42.2402 45.0085 41.1301 45.1167C40.4638 45.1818 39.8496 45.3959 39.3017 45.7856C38.8425 46.1124 38.463 46.5193 38.1461 46.9863C38.0072 47.191 38.0052 47.1922 37.8531 46.9755C37.6535 46.6914 37.4413 46.4171 37.1875 46.1803C36.1652 45.226 34.9444 44.9486 33.597 45.1475C32.7599 45.271 31.9954 45.5971 31.2819 46.0518C30.5441 46.522 29.8949 47.1006 29.2631 47.7007C28.5345 48.3929 27.8131 49.0927 26.9944 49.681C26.2013 50.2509 25.3545 50.7116 24.4125 50.9809C23.3031 51.2981 22.1975 51.32 21.0961 50.9382C20.4952 50.73 19.9619 50.4111 19.5436 49.9292C19.022 49.328 18.7421 48.622 18.7269 47.818C18.7192 47.4148 18.7314 47.0157 18.8479 46.6229C19.042 45.969 19.3998 45.4237 19.9231 44.9992C20.7383 44.3379 21.6684 44.0663 22.7027 44.3038C23.4721 44.4805 24.0554 44.914 24.3458 45.684C24.3564 45.7121 24.359 45.7514 24.4035 45.7528C24.4799 45.4911 24.4777 45.1317 24.383 44.8826C23.9851 43.8367 23.1829 43.3082 22.1223 43.1359C21.8056 43.0844 21.4804 43.0947 21.1559 43.1194C20.536 43.1665 19.9557 43.3351 19.4107 43.6304C18.5281 44.1086 17.8962 44.8315 17.4295 45.7091C17.0301 46.4601 16.8233 47.2736 16.7588 48.1151C16.7188 48.6367 16.7274 49.163 16.8021 49.6894C16.933 50.6113 17.2283 51.4706 17.6882 52.2729C18.2051 53.1748 18.8764 53.9462 19.6794 54.6043C20.7266 55.4626 21.8889 56.1077 23.175 56.5224C23.7455 56.7063 24.3249 56.8527 24.9206 56.9401C25.4391 57.0161 25.9557 57.0842 26.4805 57.0716C26.603 57.0687 26.7256 57.0676 26.8481 57.0713C27.5648 57.0929 28.2667 56.9697 28.9637 56.8305C29.7951 56.6643 30.5872 56.3686 31.3557 56.0111C32.6636 55.4029 33.8935 54.6596 35.0616 53.8142C36.1135 53.0527 37.0902 52.2064 37.8967 51.1766C37.9173 51.1504 37.9377 51.1221 37.9641 51.1031C37.9912 51.0836 38.0261 51.0796 38.0539 51.1075C38.0773 51.1312 38.1005 51.1556 38.1202 51.1823C38.6549 51.907 39.3039 52.519 39.9927 53.0902C40.5431 53.5466 41.1269 53.9574 41.7239 54.3494C42.62 54.9378 43.5534 55.4607 44.5192 55.9226C45.4762 56.3804 46.4777 56.7115 47.5199 56.9065C47.9128 56.98 48.3119 57.0487 48.7098 57.0595C49.3648 57.0773 50.0203 57.1005 50.6769 57.0086C51.2052 56.9346 51.7278 56.8457 52.2429 56.7097C54.1157 56.2153 55.7389 55.2876 57.0913 53.8878C57.7973 53.1571 58.3553 52.3291 58.7456 51.3874C59.0565 50.637 59.2259 49.8527 59.2934 49.0465C59.3355 48.5424 59.2831 48.0419 59.1637 47.5489C59.0029 46.8848 58.8029 46.2346 58.4918 45.6242C58.097 44.8499 57.5405 44.2194 56.8034 43.7605C55.9837 43.2502 55.0914 43.04 54.1269 43.1206C53.3431 43.1861 52.6628 43.4583 52.112 44.0382C51.6464 44.5284 51.4088 45.0893 51.5272 45.7941ZM47.7842 12.9832C47.7842 12.9761 47.7842 12.9689 47.7842 12.9618C48.3187 12.9618 48.8535 12.9519 49.3877 12.9648C49.8682 12.9764 50.3418 12.8894 50.8206 12.8873C50.898 12.887 50.9418 12.8416 50.9567 12.7665C50.9698 12.7006 50.99 12.6354 50.9957 12.569C51.0291 12.1681 51.0906 11.7712 51.1545 11.3743C51.2147 11.0001 51.2633 10.6238 51.3284 10.2504C51.4436 9.59029 51.5683 8.93186 51.687 8.27224C51.7269 8.04985 51.7268 8.0443 51.5347 7.93067C50.9965 7.6123 50.4376 7.33342 49.8449 7.13557C49.0856 6.88225 48.3078 6.69348 47.5214 6.54774C47.019 6.45461 46.5146 6.37124 46.008 6.2998C45.7447 6.26265 45.4782 6.24651 45.2156 6.19221C44.9556 6.13842 44.6869 6.12397 44.4214 6.09993C44.0672 6.06782 43.7094 6.06244 43.3583 6.01016C42.8944 5.94108 42.4263 5.92141 41.9617 5.89687C41.095 5.85131 40.2281 5.78189 39.3587 5.79634C39.0521 5.80139 39.054 5.8066 39.0575 5.51243C39.0578 5.47881 39.0585 5.44519 39.0565 5.41174C39.0486 5.28029 39.0222 5.24566 38.9027 5.24398C38.3682 5.23658 37.8337 5.22902 37.2992 5.22935C37.0529 5.22952 37.0529 5.23759 37.0332 5.49343C37.011 5.78256 37.011 5.78609 36.7147 5.78559C35.3782 5.78307 34.0424 5.80172 32.7081 5.88292C32.2527 5.91065 31.7973 5.94175 31.3425 5.98075C30.9886 6.01117 30.636 6.05757 30.2826 6.09472C29.9952 6.12497 29.7063 6.14296 29.4202 6.18246C28.9693 6.24466 28.5191 6.31341 28.0706 6.39174C27.194 6.54454 26.3285 6.74357 25.4922 7.05539C25.0846 7.20752 24.6946 7.39848 24.3154 7.61213C24.2301 7.6602 24.1875 7.71147 24.2049 7.82477C24.2691 8.24417 24.3198 8.66559 24.3743 9.0865C24.3845 9.16534 24.4278 9.20535 24.504 9.21224C24.7145 9.2314 24.9248 9.25174 25.1355 9.26855C25.2906 9.28099 25.4466 9.28402 25.6016 9.29898C25.9779 9.33512 26.3537 9.37529 26.7297 9.4148C27.0394 9.44741 27.3498 9.47346 27.6579 9.517C28.065 9.57449 28.4688 9.65568 28.8762 9.70947C29.5918 9.80377 30.299 9.9475 31.0023 10.1003C32.3253 10.3877 33.639 10.7165 34.9439 11.0811C36.3543 11.4753 37.7588 11.8954 39.1949 12.1904C39.8257 12.32 40.4587 12.437 41.0981 12.5169C41.374 12.5513 41.6488 12.5933 41.9247 12.6275C42.2556 12.6685 42.5863 12.7199 42.9186 12.7389C43.3075 12.7613 43.696 12.7996 44.0819 12.8383C44.6032 12.8904 45.1258 12.9047 45.6469 12.9388C46.3575 12.9852 47.0717 12.9712 47.7842 12.9832ZM50.8053 13.6952C50.5682 13.6952 50.347 13.6892 50.1253 13.7055C49.5363 13.7492 48.947 13.7734 48.356 13.7678C47.6653 13.7613 46.9744 13.7766 46.2839 13.7631C45.6718 13.7512 45.0604 13.7129 44.4487 13.6856C44.4154 13.6841 44.382 13.6794 44.3492 13.6735C44.1292 13.6334 43.9074 13.6219 43.684 13.6204C43.5735 13.6197 43.463 13.6006 43.3526 13.5902C43.2087 13.5764 43.0649 13.5628 42.921 13.5495C42.8213 13.5402 42.7213 13.5337 42.622 13.5219C42.291 13.4826 41.9598 13.4437 41.6293 13.4002C41.3429 13.3626 41.0563 13.3236 40.7715 13.2762C40.455 13.2235 40.1398 13.1623 39.8245 13.1022C39.4119 13.0233 38.9946 12.9621 38.5885 12.8571C37.4843 12.5712 36.3845 12.2677 35.2838 11.9682C34.3651 11.7182 33.4444 11.4772 32.5187 11.2548C31.8287 11.089 31.1387 10.9257 30.4411 10.7959C29.9845 10.711 29.5306 10.6105 29.0733 10.5296C28.6253 10.4504 28.1747 10.3862 27.7248 10.3181C27.4941 10.2832 27.2629 10.2497 27.031 10.2242C26.7222 10.1901 26.4084 10.1864 26.1041 10.1297C25.7193 10.0579 25.3291 10.0542 24.943 10.0186C24.4458 9.97271 24.4973 9.91942 24.5563 10.4478C24.5873 10.7248 24.6402 10.9993 24.6772 11.2756C24.7111 11.53 24.7307 11.7861 24.7675 12.04C24.828 12.4589 24.8986 12.8764 24.9622 13.2948C25.0293 13.7354 25.0935 14.1763 25.1582 14.6172C25.2197 15.037 25.2789 15.4572 25.3419 15.8768C25.3851 16.1637 25.4349 16.4498 25.4775 16.7368C25.489 16.8141 25.5223 16.847 25.6002 16.8659C25.9336 16.9467 26.264 17.0412 26.5972 17.1225C27.1902 17.2674 27.7885 17.3809 28.3944 17.4628C28.6137 17.4924 28.8343 17.5157 29.0538 17.5458C29.3616 17.588 29.6687 17.6448 29.978 17.6631C30.3667 17.6862 30.7546 17.7268 31.1406 17.765C31.6396 17.8143 32.1429 17.7943 32.6386 17.8753C33.696 17.8793 34.7545 17.9462 35.8102 17.8269C35.8985 17.817 35.9883 17.8212 36.0771 17.8146C36.1657 17.808 36.2543 17.7993 36.3421 17.7864C36.594 17.749 36.8461 17.7122 37.0972 17.6692C37.4242 17.6132 37.7531 17.5641 38.0759 17.4893C38.5181 17.3868 38.9577 17.2703 39.3945 17.1462C39.8735 17.0101 40.3563 16.8813 40.8228 16.7089C41.8428 16.3316 42.8638 15.9581 43.904 15.6411C44.6776 15.4053 45.4628 15.2188 46.2608 15.083C46.6219 15.0217 46.9827 14.9598 47.346 14.9136C47.6769 14.8716 48.0074 14.8065 48.3393 14.7976C49.0406 14.7788 49.7391 14.6861 50.4421 14.7159C50.4961 14.7183 50.5506 14.7075 50.6135 14.7019C50.6784 14.3695 50.7743 14.0528 50.8053 13.6952ZM49.5385 20.3386C49.7187 20.35 49.7463 20.3352 49.7645 20.227C49.8381 19.7865 49.9096 19.3456 49.9785 18.9044C50.0405 18.5067 50.0951 18.1078 50.1586 17.7104C50.2659 17.0385 50.3781 16.3675 50.4874 15.6957C50.5063 15.5792 50.4714 15.5364 50.3378 15.5372C49.9815 15.5394 49.6244 15.534 49.2693 15.5577C48.5814 15.6036 47.8937 15.6485 47.2099 15.7536C46.7273 15.8277 46.2439 15.9001 45.7678 16.0034C44.9431 16.1822 44.1311 16.4138 43.3304 16.6831C42.2353 17.0514 41.1404 17.4201 40.0435 17.7825C39.284 18.0335 38.513 18.2456 37.7267 18.3923C37.0379 18.5209 36.3437 18.6127 35.6441 18.6662C34.7205 18.7368 33.797 18.7322 32.8736 18.6911C32.2846 18.6648 31.6966 18.6089 31.1088 18.5599C30.5217 18.511 29.9323 18.475 29.3492 18.3952C28.7671 18.3155 28.1834 18.2439 27.6044 18.1362C27.0255 18.0282 26.4485 17.9156 25.8779 17.7697C25.8029 17.7506 25.7256 17.7376 25.6487 17.729C25.5949 17.723 25.5581 17.7618 25.5775 17.8097C25.6342 17.9492 25.6141 18.0968 25.6362 18.2395C25.73 18.8462 25.8243 19.4527 25.9196 20.059C26.0235 20.7212 26.1289 21.3833 26.2339 22.0453C26.3246 22.6178 26.4153 23.1903 26.5072 23.7627C26.5443 23.994 26.5806 24.2255 26.6254 24.4553C26.6527 24.5953 26.695 24.6234 26.832 24.6017C27.15 24.5512 27.4687 24.5022 27.7847 24.4406C28.5795 24.2858 29.3686 24.108 30.1497 23.8905C31.971 23.3833 33.7594 22.7798 35.507 22.0572C36.7095 21.56 37.9168 21.0805 39.1728 20.7314C39.9437 20.5173 40.7215 20.3374 41.5092 20.2076C42.0242 20.1227 42.543 20.0585 43.0647 20.0143C43.753 19.9558 44.4418 19.9274 45.1315 19.9091C45.6887 19.8943 46.2439 19.9514 46.8003 19.9598C47.18 19.9657 47.5543 20.0222 47.9297 20.0631C48.3709 20.1111 48.8077 20.199 49.2459 20.2732C49.3653 20.2934 49.4833 20.3261 49.5385 20.3386ZM48.5797 25.0549C48.667 25.0549 48.7561 25.0569 48.845 25.0544C48.9448 25.0515 48.9813 25.0196 49.0038 24.9189C49.0135 24.8753 49.018 24.8306 49.0249 24.7862C49.0791 24.4332 49.1267 24.0792 49.1886 23.7277C49.3009 23.0896 49.423 22.4534 49.5383 21.8158C49.5701 21.6405 49.5935 21.4635 49.6176 21.2868C49.6276 21.2125 49.5988 21.1675 49.5206 21.1379C49.3509 21.0737 49.1712 21.0691 48.9968 21.0382C48.5807 20.9646 48.1627 20.8956 47.7428 20.8519C47.2338 20.799 46.7217 20.7786 46.2117 20.7361C45.2978 20.66 44.3868 20.7223 43.4765 20.7928C43.1219 20.8202 42.77 20.882 42.4157 20.9163C41.6403 20.9915 40.8759 21.1347 40.1201 21.315C38.8861 21.6095 37.6866 22.0137 36.5129 22.4996C34.5294 23.3208 32.5189 24.067 30.4531 24.6553C29.4269 24.9476 28.386 25.1715 27.3338 25.344C27.148 25.3744 26.9636 25.4131 26.7785 25.4479C26.748 25.6499 26.8172 25.84 26.8466 26.0352C26.9049 26.4217 26.9949 26.8032 27.0238 27.1944C27.0445 27.4758 27.0502 27.483 27.3471 27.4834C28.8284 27.4847 30.3098 27.4852 31.7911 27.4818C32.0693 27.4812 32.3477 27.4664 32.6255 27.4494C33.1363 27.4183 33.6469 27.383 34.1571 27.3448C34.4784 27.3208 34.8018 27.3048 35.1196 27.2551C35.5471 27.188 35.9769 27.1378 36.4041 27.0655C37.2037 26.9302 37.999 26.7745 38.7861 26.5834C39.8429 26.3267 40.8917 26.0365 41.9449 25.7656C42.5792 25.6024 43.2137 25.4412 43.8609 25.3324C44.2006 25.2754 44.5393 25.2167 44.8822 25.1819C45.2248 25.1473 45.5657 25.0925 45.9087 25.0656C46.2747 25.037 46.6427 25.0322 47.0095 25.0144C47.5333 24.9885 48.0561 24.9935 48.5797 25.0549ZM48.8647 25.9081C48.8029 25.8402 48.7332 25.8501 48.6678 25.8437C47.7431 25.7538 46.8199 25.8323 45.899 25.8925C45.3696 25.9271 44.8391 25.9828 44.3121 26.0695C43.7525 26.1618 43.2008 26.2847 42.6521 26.4218C41.9545 26.596 41.2628 26.7942 40.566 26.9715C39.7943 27.1678 39.0224 27.3657 38.245 27.5377C37.6824 27.662 37.1176 27.7802 36.5477 27.8717C36.3507 27.9033 36.152 27.9246 35.9555 27.9608C35.7266 28.0028 35.4974 28.0645 35.2671 28.0705C34.9434 28.0791 34.6304 28.1821 34.3049 28.1594C34.2506 28.1556 34.1937 28.1689 34.1399 28.1821C33.9867 28.2196 33.8313 28.2221 33.6751 28.2243C33.5303 28.2263 33.3842 28.2208 33.2413 28.239C32.831 28.2909 32.4192 28.2954 32.0069 28.2951C30.4809 28.2934 28.9548 28.2909 27.4287 28.2885C27.3843 28.2885 27.3396 28.285 27.2952 28.2864C27.1918 28.2892 27.1649 28.3217 27.1698 28.4345C27.1713 28.4679 27.1718 28.5019 27.1768 28.535C27.2209 28.8217 27.2656 29.1084 27.3109 29.395C27.3331 29.536 27.3441 29.5467 27.4729 29.5516C27.5396 29.5541 27.6066 29.5538 27.6733 29.5521C28.7319 29.5257 29.7886 29.5839 30.8455 29.6284C30.9343 29.6321 31.0239 29.6395 31.111 29.6565C31.2539 29.6846 31.3975 29.6937 31.5427 29.6975C31.6533 29.7006 31.7638 29.7177 31.8744 29.729C31.9959 29.7416 32.1174 29.755 32.239 29.7676C32.5259 29.7972 32.8175 29.8046 33.0983 29.8633C33.2968 29.9046 33.4962 29.8997 33.6933 29.9356C34.1081 30.011 34.5252 30.0739 34.9414 30.1426C35.2803 30.1986 35.6195 30.2524 35.9575 30.3133C36.2842 30.3721 36.6092 30.4403 36.9354 30.5015C37.2942 30.5688 37.6541 30.6303 38.0127 30.6982C38.4489 30.7807 38.8843 30.8685 39.3203 30.9515C39.8095 31.0447 40.2982 31.1416 40.7892 31.2247C41.1714 31.2892 41.5569 31.3348 41.9408 31.3891C42.2265 31.4294 42.5115 31.476 42.7979 31.5096C43.151 31.551 43.5054 31.5817 43.8594 31.6172C43.9812 31.6295 44.104 31.636 44.2243 31.6567C44.379 31.6834 44.5336 31.6917 44.6899 31.693C44.857 31.6945 45.0248 31.694 45.1907 31.7103C46.0478 31.794 46.9035 31.7705 47.7591 31.6908C47.8872 31.6789 47.9093 31.6627 47.93 31.5316C47.9858 31.1795 48.036 30.8265 48.0938 30.4748C48.1552 30.1015 48.2281 29.7298 48.2868 29.356C48.3699 28.8275 48.4361 28.2961 48.525 27.7686C48.6303 27.1438 48.7519 26.5222 48.8647 25.9081ZM30.9789 36.7833C30.9789 36.7917 30.9789 36.8 30.9789 36.8084C30.5782 36.8084 30.1773 36.8132 29.7765 36.807C29.3535 36.8003 28.9309 36.7821 28.5079 36.7709C28.3712 36.7672 28.3431 36.7978 28.3601 36.9205C28.4308 37.4288 28.4997 37.9375 28.5743 38.4455C28.6358 38.8647 28.7097 39.2821 28.7686 39.7016C28.8291 40.1328 28.8777 40.5658 28.9324 40.9978C28.9394 41.0533 28.9525 41.1078 28.962 41.1629C28.9752 41.2391 29.0197 41.2824 29.0962 41.2861C29.174 41.2898 29.2521 41.2895 29.3298 41.2893C29.7086 41.2885 30.0848 41.2493 30.4623 41.2211C30.951 41.1844 31.4335 41.1061 31.9178 41.0429C32.4008 40.9799 32.8773 40.8676 33.3571 40.7805C34.4519 40.5815 35.515 40.2649 36.5636 39.8988C37.5077 39.569 38.4491 39.231 39.4057 38.9403C40.3192 38.6626 41.2488 38.4451 42.1879 38.273C42.6575 38.1869 43.1299 38.1133 43.6039 38.0561C44.0008 38.0084 44.3999 37.9758 44.7986 37.9428C45.1766 37.9116 45.5535 37.8941 45.932 37.8943C46.1991 37.8943 46.4663 37.9 46.7336 37.9013C46.8649 37.902 46.8761 37.8956 46.902 37.7529C47.0279 37.0607 47.1511 36.3678 47.275 35.6752C47.3004 35.5325 47.3296 35.3901 47.3469 35.2464C47.3626 35.1156 47.3345 35.0844 47.2027 35.0906C46.8914 35.1054 46.5808 35.1387 46.2695 35.145C45.2447 35.1664 44.2263 35.2629 43.2077 35.3713C42.5998 35.436 41.9922 35.497 41.3885 35.5964C40.8636 35.683 40.3351 35.748 39.8105 35.8369C38.9565 35.9815 38.1102 36.1686 37.2514 36.2868C36.8668 36.3397 36.4867 36.4241 36.1021 36.4787C35.6404 36.5443 35.1766 36.595 34.7133 36.6487C34.0275 36.7282 33.3401 36.784 32.6491 36.7836C32.0924 36.783 31.5356 36.7833 30.9789 36.7833ZM41.5041 43.7857C42.1992 43.7834 42.8456 43.8141 43.4891 43.7282C43.6099 43.7121 43.7336 43.7187 43.856 43.7126C43.9448 43.7084 44.0342 43.706 44.1222 43.6938C44.4082 43.6534 44.6925 43.5912 44.9798 43.5709C45.2731 43.55 45.509 43.4183 45.7404 43.2596C45.9141 43.1404 46.052 43.0031 46.0194 42.7655C46.0151 42.7333 46.0238 42.6986 46.0298 42.6657C46.1224 42.1614 46.2184 41.658 46.3078 41.1532C46.4439 40.3856 46.5753 39.6173 46.7092 38.8494C46.7294 38.7334 46.7144 38.7026 46.6064 38.7038C46.0502 38.7094 45.4933 38.6746 44.9379 38.7448C44.6075 38.7867 44.273 38.7845 43.9426 38.8388C43.6803 38.882 43.4115 38.8847 43.1492 38.9274C42.788 38.9861 42.4311 39.0691 42.0712 39.1348C41.2541 39.2843 40.4478 39.4786 39.6532 39.72C38.8789 39.9553 38.1127 40.2155 37.3549 40.4993C36.3461 40.877 35.3157 41.1822 34.2656 41.4129C33.5201 41.5766 32.7665 41.7043 32.0086 41.8049C31.8003 41.8324 31.5916 41.8617 31.3828 41.8881C31.0416 41.9311 30.7012 41.9953 30.3587 42.0111C29.9694 42.0291 29.5859 42.1177 29.194 42.0955C29.113 42.091 29.0688 42.15 29.0859 42.2263C29.1469 42.4974 29.2093 42.7684 29.276 43.0382C29.3042 43.1528 29.2813 43.2971 29.4211 43.3572C29.5326 43.4053 29.6464 43.4556 29.7643 43.4784C29.8832 43.5016 30.0079 43.4932 30.1291 43.4642C30.215 43.4436 30.3025 43.4204 30.3901 43.4166C30.6348 43.4058 30.8756 43.3554 31.1155 43.3194C31.4786 43.2651 31.8443 43.2283 32.2076 43.2068C33.1525 43.151 34.0996 43.173 35.0459 43.2006C35.1126 43.2026 35.1804 43.2038 35.2453 43.217C35.6282 43.2954 36.0199 43.2779 36.4062 43.3319C36.7899 43.3853 37.1775 43.4194 37.563 43.4663C37.872 43.504 38.1821 43.5321 38.4921 43.5605C38.9349 43.6008 39.3781 43.6381 39.8213 43.6756C39.9875 43.6897 40.1539 43.7027 40.3204 43.7126C40.5093 43.7239 40.6984 43.7287 40.8873 43.7407C41.109 43.7546 41.331 43.7729 41.5041 43.7857ZM30.6273 66.1019C31.8973 66.1019 33.1674 66.1014 34.4373 66.1026C34.6048 66.1028 34.7715 66.0997 34.9357 66.0621C35.245 65.9911 35.4493 65.8118 35.5302 65.4958C35.5697 65.342 35.5805 65.1873 35.5805 65.03C35.5799 64.089 35.5802 63.148 35.5802 62.2071C35.5802 62.1511 35.5829 62.0948 35.5787 62.0392C35.5626 61.8274 35.4508 61.7028 35.2478 61.689C35.0925 61.6785 34.936 61.6884 34.7802 61.6862C34.6134 61.6838 34.4383 61.8511 34.451 62.0392C34.4564 62.1172 34.4514 62.196 34.4514 62.2744C34.4514 62.9128 34.456 63.5514 34.45 64.1898C34.4442 64.8098 34.5492 64.6914 33.911 64.7027C33.8888 64.703 33.866 64.702 33.8445 64.6971C33.7968 64.6867 33.7654 64.6544 33.7614 64.6069C33.7549 64.529 33.7534 64.4505 33.7532 64.3724C33.7523 63.9915 33.7537 63.6106 33.7522 63.2298C33.7519 63.1406 33.7517 63.0498 33.737 62.9624C33.7117 62.8124 33.6116 62.7178 33.4665 62.706C33.2785 62.6909 33.0875 62.6911 32.8997 62.7074C32.7457 62.7208 32.6494 62.8435 32.6347 63.0059C32.6277 63.0837 32.631 63.1626 32.6309 63.2409C32.6305 63.6329 32.632 64.0251 32.6302 64.4171C32.6289 64.7091 32.6225 64.7136 32.3288 64.703C32.1928 64.6981 32.1718 64.6827 32.1708 64.547C32.1679 64.1101 32.1694 63.6733 32.1688 63.2364C32.1686 63.158 32.173 63.0789 32.1634 63.0014C32.1442 62.8456 32.0372 62.7185 31.8881 62.7064C31.7002 62.6911 31.5091 62.6909 31.3211 62.7052C31.1713 62.7166 31.0623 62.8442 31.0446 62.9978C31.0356 63.0753 31.0399 63.1545 31.0398 63.2328C31.0394 63.6585 31.0411 64.0843 31.0386 64.5099C31.0374 64.6939 31.0277 64.7002 30.8495 64.703C30.805 64.7037 30.7602 64.7042 30.7159 64.7017C30.6111 64.6956 30.5827 64.6696 30.5817 64.5554C30.5787 64.2194 30.5802 63.8834 30.5797 63.5474C30.5795 63.3793 30.5845 63.211 30.5775 63.0434C30.5686 62.8308 30.4571 62.7124 30.247 62.699C30.0917 62.6891 29.9347 62.6891 29.7794 62.7C29.5913 62.7133 29.4757 62.8329 29.4533 63.0215C29.4455 63.0879 29.4493 63.1557 29.4493 63.2229C29.449 63.6038 29.4495 63.9847 29.449 64.3655C29.4488 64.4438 29.4495 64.5223 29.4438 64.6003C29.4391 64.6642 29.3995 64.6983 29.335 64.7005C29.3015 64.7017 29.2683 64.7032 29.2348 64.7032C28.4996 64.7035 27.7643 64.7035 27.029 64.7035C26.9956 64.7035 26.9623 64.7018 26.9289 64.7007C26.8636 64.6983 26.8249 64.6628 26.821 64.5993C26.8155 64.51 26.8162 64.4203 26.816 64.3307C26.8157 63.6361 26.816 62.9417 26.8155 62.2471C26.8155 62.1575 26.8205 62.0669 26.8086 61.9787C26.7877 61.8228 26.6777 61.705 26.5246 61.6934C26.3474 61.6801 26.1678 61.679 25.9906 61.6917C25.8171 61.7043 25.7102 61.8247 25.6913 61.9977C25.6865 62.042 25.6882 62.0871 25.6882 62.132C25.6882 63.129 25.688 64.1259 25.6885 65.1229C25.6885 65.2576 25.7015 65.3899 25.7403 65.5208C25.8283 65.8173 26.0189 65.9964 26.3186 66.0617C26.4831 66.0975 26.6495 66.1026 26.817 66.1024C28.0873 66.1014 29.3574 66.1019 30.6273 66.1019ZM51.735 66.1382C52.3693 66.1382 53.0036 66.1392 53.638 66.1374C53.7713 66.1371 53.907 66.1401 54.0374 66.1169C54.3166 66.0671 54.5335 65.9249 54.6368 65.6445C54.6796 65.5285 54.7082 65.4095 54.7082 65.2845C54.7082 64.5458 54.7114 63.8074 54.7074 63.0688C54.7062 62.8548 54.5942 62.7361 54.3869 62.7131C54.2879 62.7022 54.1864 62.7143 54.0868 62.7072C53.7713 62.6852 53.5996 62.8286 53.6148 63.1912C53.6335 63.638 53.6207 64.0863 53.6181 64.5337C53.6171 64.7087 53.5971 64.7255 53.4292 64.7296C53.3958 64.7304 53.3624 64.7304 53.3291 64.7294C53.1923 64.7247 53.1713 64.7069 53.1671 64.5786C53.1637 64.4779 53.1659 64.3772 53.1659 64.2766C53.1656 63.8736 53.1699 63.4709 53.1632 63.0681C53.1597 62.8583 53.0429 62.7311 52.8386 62.7141C52.6839 62.7012 52.5263 62.701 52.3719 62.716C52.1966 62.7329 52.0936 62.8479 52.0747 63.0244C52.0652 63.113 52.0682 63.2033 52.068 63.2927C52.0673 63.7067 52.0693 64.1207 52.0667 64.5348C52.0655 64.7113 52.0478 64.726 51.8774 64.7292C51.8221 64.7303 51.7662 64.7271 51.7111 64.7224C51.6602 64.718 51.631 64.6855 51.6295 64.6356C51.6258 64.5127 51.6245 64.3895 51.6241 64.2666C51.6235 63.875 51.6158 63.4831 51.6265 63.0918C51.6322 62.8832 51.4628 62.7043 51.251 62.7089C51.1286 62.7114 51.0057 62.703 50.8838 62.7107C50.6518 62.7255 50.5401 62.8361 50.5184 63.0648C50.512 63.1313 50.5155 63.1989 50.5155 63.2661C50.5154 63.6354 50.5165 64.0047 50.5152 64.3739C50.5137 64.7708 50.554 64.7269 50.1547 64.7304C50.0991 64.7309 50.0436 64.7296 49.9879 64.7274C49.9244 64.7249 49.8847 64.6938 49.8819 64.6269C49.879 64.5598 49.8779 64.4927 49.8779 64.4257C49.8775 63.7096 49.8779 62.9933 49.8775 62.2772C49.8775 62.1878 49.8822 62.0974 49.8722 62.0089C49.8508 61.8203 49.7336 61.7092 49.5427 61.6939C49.4542 61.6869 49.3643 61.6978 49.2758 61.6902C48.8664 61.6556 48.7607 61.8802 48.7653 62.2107C48.7783 63.1616 48.7708 64.1128 48.7693 65.0641C48.7691 65.2105 48.7823 65.3546 48.8141 65.4969C48.9005 65.8831 49.1356 66.0918 49.5321 66.1288C49.6426 66.1391 49.7545 66.1384 49.8657 66.1386C50.4884 66.1387 51.1117 66.1382 51.735 66.1382ZM38.5009 63.6546C38.5009 64.1135 38.4999 64.5722 38.5014 65.0311C38.5021 65.2214 38.5146 65.4102 38.5715 65.5948C38.6636 65.8938 38.8716 66.0552 39.1663 66.1171C39.2205 66.1285 39.2768 66.1332 39.3323 66.1332C40.2448 66.1339 41.1575 66.1335 42.07 66.1325C42.1143 66.1325 42.1593 66.1285 42.2029 66.1201C42.5252 66.0572 42.7518 65.8844 42.8332 65.5524C42.8544 65.4662 42.874 65.3766 42.8746 65.2885C42.8787 64.7178 42.8892 64.1468 42.874 63.5764C42.8591 63.0229 42.5635 62.7358 42.0192 62.7054C41.9969 62.7042 41.9747 62.7042 41.9525 62.7042C41.6853 62.7042 41.4181 62.6996 41.1511 62.7065C41.0411 62.7094 40.9301 62.7289 40.8224 62.7541C40.5625 62.8151 40.3996 62.9837 40.3092 63.2337C40.2585 63.3739 40.2493 63.5179 40.2472 63.663C40.2431 63.9204 40.2465 64.1777 40.245 64.4352C40.2433 64.7286 40.2427 64.7287 39.9526 64.7304C39.8859 64.7308 39.819 64.7321 39.7523 64.7287C39.6383 64.723 39.6107 64.698 39.6062 64.5939C39.6027 64.5158 39.6047 64.4373 39.6047 64.3589C39.6047 63.6763 39.6047 62.9936 39.6047 62.311C39.6047 62.2327 39.6072 62.1542 39.6038 62.076C39.5923 61.8069 39.484 61.702 39.2081 61.6916C39.1414 61.689 39.0745 61.6906 39.0078 61.6911C38.597 61.6941 38.5038 61.7877 38.5016 62.211C38.4989 62.6921 38.5009 63.1733 38.5009 63.6546ZM22.4934 64.6876C22.4498 64.698 22.3965 64.7103 22.3435 64.7235C22.0076 64.8074 21.7744 65.0172 21.6227 65.3238C21.5023 65.5672 21.4278 65.8271 21.4203 66.097C21.4087 66.5107 21.4179 66.9249 21.4193 67.3389C21.4194 67.3722 21.4216 67.4072 21.4318 67.4383C21.4731 67.5645 21.5542 67.6603 21.6896 67.6689C21.878 67.6809 22.0681 67.6814 22.2565 67.6703C22.409 67.6612 22.5185 67.544 22.5401 67.3869C22.5506 67.3099 22.5452 67.2305 22.5459 67.1522C22.5474 66.9955 22.5387 66.8382 22.5509 66.6825C22.5755 66.3707 22.7663 66.1658 23.0721 66.1189C23.1814 66.1021 23.2937 66.1021 23.4047 66.1012C23.6717 66.0992 23.9391 66.1065 24.2059 66.0992C24.3497 66.0954 24.4966 66.0844 24.6354 66.0498C24.9006 65.9837 25.0865 65.8214 25.1714 65.5497C25.2122 65.4193 25.2292 65.2882 25.2292 65.1534C25.2296 64.6497 25.2291 64.1463 25.2296 63.6427C25.2297 63.4961 25.2102 63.3537 25.163 63.2139C25.0901 62.9978 24.9464 62.8529 24.7396 62.7686C24.604 62.7133 24.462 62.6909 24.3154 62.6917C24.026 62.6934 23.7368 62.6917 23.4474 62.6926C23.3919 62.6927 23.3359 62.6944 23.2807 62.701C22.8524 62.7516 22.5976 63.0061 22.5468 63.4386C22.5337 63.5494 22.5315 63.6618 22.5302 63.7736C22.5277 63.9973 22.5302 64.2213 22.5289 64.445C22.5289 64.5225 22.5407 64.6022 22.4934 64.6876ZM48.3085 64.8449C48.3125 64.8449 48.3165 64.8449 48.3205 64.8449C48.3205 64.4978 48.3242 64.1507 48.3189 63.8037C48.3164 63.6475 48.3105 63.4887 48.2804 63.3362C48.2216 63.038 48.0457 62.8371 47.7464 62.7538C47.4993 62.685 46.5014 62.6855 46.2531 62.7538C45.9952 62.8247 45.8295 62.9889 45.7456 63.2407C45.6992 63.3798 45.678 63.5223 45.6787 63.6697C45.6812 64.1735 45.6773 64.6775 45.6814 65.1813C45.6822 65.292 45.6941 65.4055 45.72 65.5129C45.8099 65.8871 46.0366 66.0834 46.4191 66.1263C46.5074 66.1362 46.5969 66.1362 46.686 66.1376C46.8196 66.1396 46.9533 66.1367 47.0867 66.1396C47.2042 66.1421 47.2328 66.208 47.1723 66.3132C47.1133 66.4156 47.0265 66.4803 46.9207 66.5232C46.7951 66.5741 46.6639 66.5946 46.5287 66.5931C46.3839 66.5914 46.2389 66.5847 46.0945 66.5921C45.9061 66.6018 45.7847 66.7165 45.7668 66.9066C45.7542 67.0397 45.7559 67.1754 45.7636 67.3092C45.7757 67.5171 45.8863 67.6444 46.0951 67.663C46.5083 67.6999 46.9189 67.6888 47.3104 67.5235C47.7331 67.3452 48.0263 67.0406 48.1915 66.6109C48.2771 66.3884 48.3067 66.1562 48.3078 65.9197C48.3097 65.5615 48.3085 65.2033 48.3085 64.8449ZM45.2218 64.6116C45.2241 64.6116 45.2264 64.6116 45.2288 64.6116C45.2288 64.1422 45.2293 63.6729 45.2283 63.2038C45.2281 63.1145 45.2276 63.0247 45.2171 62.9365C45.2019 62.8104 45.1201 62.724 45.0012 62.7149C44.8026 62.7 44.601 62.6988 44.4026 62.7149C44.2446 62.7277 44.1506 62.8467 44.1382 63.01C44.1314 63.0989 44.1351 63.1886 44.1351 63.2781C44.1349 64.1384 44.1351 64.9987 44.1349 65.8592C44.1349 65.9374 44.1387 66.016 44.1331 66.0937C44.1168 66.3179 44.001 66.4653 43.7873 66.5354C43.6698 66.5741 43.5489 66.5822 43.4267 66.5926C43.2411 66.6086 43.1308 66.7061 43.1156 66.8816C43.1012 67.0476 43.1069 67.2164 43.1164 67.3832C43.1226 67.4901 43.1915 67.5642 43.2856 67.6165C43.3672 67.6617 43.4538 67.6706 43.5434 67.6691C43.78 67.6651 44.0062 67.6066 44.2227 67.5175C44.6577 67.3384 44.9551 67.0224 45.1133 66.5766C45.1885 66.3643 45.2229 66.1448 45.2221 65.919C45.2206 65.4832 45.2218 65.0474 45.2218 64.6116ZM37.2074 63.9078C37.2074 63.3483 37.2076 62.7891 37.2072 62.2298C37.2072 62.1516 37.2111 62.0725 37.2012 61.9953C37.1795 61.8249 37.0655 61.7043 36.8968 61.6914C36.7309 61.6788 36.5627 61.6791 36.3966 61.6894C36.2088 61.701 36.0968 61.8195 36.0746 62.0121C36.0669 62.0785 36.0705 62.1461 36.0704 62.2133C36.0702 63.3433 36.0702 64.4731 36.0704 65.603C36.0704 65.659 36.0672 65.7153 36.0724 65.7708C36.0923 65.9789 36.2053 66.0982 36.4131 66.1137C36.5569 66.1245 36.7027 66.1239 36.8466 66.1149C37.0701 66.1007 37.1893 65.9765 37.2054 65.754C37.2102 65.6872 37.2071 65.6198 37.2071 65.5526C37.2074 65.0041 37.2074 64.4559 37.2074 63.9078ZM30.9219 62.2934C31.2317 62.2994 31.4917 62.0589 31.4967 61.7613C31.5015 61.4693 31.2386 61.2169 30.9316 61.219C30.6377 61.2211 30.3842 61.4552 30.3737 61.7346C30.3625 62.0294 30.6156 62.2875 30.9219 62.2934ZM32.2254 61.2194C31.9195 61.2187 31.6507 61.4757 31.6572 61.7625C31.6637 62.0557 31.93 62.2992 32.2372 62.2934C32.5327 62.2876 32.7755 62.0535 32.7822 61.7675C32.7892 61.4698 32.5354 61.2201 32.2254 61.2194ZM32.1166 60.6541C32.1106 60.3528 31.8608 60.1298 31.5387 60.138C31.2442 60.1456 30.9975 60.3841 30.9948 60.6637C30.9921 60.9489 31.2641 61.2081 31.5647 61.2068C31.8703 61.2054 32.1226 60.9526 32.1166 60.6541ZM53.2131 61.2256C52.9472 61.2343 52.6613 61.4594 52.6848 61.7991C52.7051 62.0938 52.9409 62.3125 53.2418 62.306C53.5509 62.2992 53.7875 62.0452 53.7723 61.7368C53.7582 61.4515 53.5016 61.2169 53.2131 61.2256ZM51.9764 61.2256C51.6878 61.2204 51.4342 61.4574 51.423 61.7427C51.411 62.0494 51.6514 62.3021 51.9593 62.306C52.2618 62.3098 52.4911 62.091 52.5082 61.7934C52.5288 61.4349 52.2257 61.229 51.9764 61.2256ZM52.5697 61.2122C52.8595 61.2174 53.1104 60.9824 53.1221 60.6948C53.1348 60.3868 52.8942 60.1328 52.5873 60.1298C52.295 60.1268 52.0443 60.3581 52.0304 60.6435C52.016 60.9385 52.2705 61.2068 52.5697 61.2122Z" fill="#010100"/>
<path d="M51.5265 45.7942C51.4081 45.0895 51.6457 44.5284 52.1111 44.0385C52.662 43.4588 53.3423 43.1865 54.1261 43.1209C55.0905 43.0402 55.9828 43.2505 56.8025 43.7609C57.5396 44.2196 58.096 44.8503 58.4909 45.6245C58.8021 46.2349 59.002 46.8851 59.1628 47.5493C59.2822 48.0424 59.3349 48.5427 59.2926 49.0468C59.225 49.8528 59.0557 50.6374 58.7447 51.3877C58.3545 52.3296 57.7964 53.1575 57.0904 53.8882C55.738 55.2878 54.1148 56.2157 52.242 56.71C51.7269 56.846 51.2043 56.9349 50.676 57.0089C50.0195 57.1009 49.3639 57.0775 48.7089 57.0598C48.311 57.0491 47.9119 56.9803 47.5191 56.9069C46.4768 56.7119 45.4754 56.3807 44.5184 55.923C43.5526 55.4611 42.6192 54.9383 41.7231 54.3498C41.1261 53.9578 40.5422 53.5468 39.9919 53.0906C39.3031 52.5194 38.6542 51.9073 38.1194 51.1827C38.0997 51.1559 38.0766 51.1314 38.053 51.1079C38.0253 51.08 37.9905 51.084 37.9632 51.1035C37.9368 51.1225 37.9164 51.1507 37.8959 51.1769C37.0894 52.2067 36.1127 53.0532 35.0607 53.8146C33.8926 54.6601 32.6628 55.4032 31.3549 56.0114C30.5864 56.3688 29.7942 56.6646 28.9628 56.8309C28.2658 56.9702 27.564 57.0933 26.8473 57.0716C26.7249 57.0679 26.6022 57.0691 26.4796 57.0719C25.9548 57.0845 25.4382 57.0165 24.9198 56.9405C24.3241 56.8531 23.7446 56.7067 23.1742 56.5228C21.888 56.1081 20.7258 55.4629 19.6785 54.6046C18.8755 53.9465 18.2043 53.1751 17.6873 52.2733C17.2274 51.4709 16.9323 50.6116 16.8013 49.6898C16.7265 49.1633 16.718 48.637 16.758 48.1154C16.8225 47.2739 17.0293 46.4605 17.4287 45.7094C17.8953 44.8316 18.5274 44.1088 19.4098 43.6307C19.9549 43.3354 20.5352 43.1668 21.1551 43.1197C21.4796 43.095 21.8048 43.0848 22.1214 43.1362C23.1821 43.3085 23.9842 43.837 24.3821 44.8829C24.4769 45.132 24.4791 45.4912 24.4027 45.7531C24.3582 45.7518 24.3555 45.7125 24.345 45.6844C24.0548 44.9143 23.4714 44.4808 22.7019 44.3041C21.6675 44.0666 20.7375 44.3383 19.9223 44.9996C19.399 45.424 19.0412 45.9693 18.8471 46.6232C18.7304 47.0162 18.7184 47.4153 18.7261 47.8184C18.7413 48.6224 19.0211 49.3284 19.5428 49.9295C19.9611 50.4114 20.4942 50.7303 21.0952 50.9386C22.1967 51.3203 23.3024 51.2983 24.4117 50.9813C25.3538 50.712 26.2004 50.2512 26.9935 49.6814C27.8122 49.0932 28.5335 48.3933 29.2622 47.701C29.894 47.1009 30.5432 46.5222 31.281 46.0522C31.9946 45.5975 32.7591 45.2714 33.5962 45.1478C34.9435 44.949 36.1643 45.2265 37.1867 46.1806C37.4405 46.4176 37.6526 46.6918 37.8522 46.9759C38.0044 47.1925 38.0065 47.1914 38.1453 46.9866C38.462 46.5197 38.8416 46.1127 39.3009 45.7859C39.8488 45.3961 40.463 45.1819 41.1292 45.1171C42.2392 45.0088 43.2712 45.2722 44.2464 45.7913C44.8692 46.1229 45.4398 46.5324 45.9607 47.0092C46.5701 47.5669 47.1706 48.1344 47.7797 48.6926C48.5148 49.3665 49.3054 49.9635 50.1928 50.4237C50.8596 50.7693 51.5608 51.0136 52.3001 51.1403C53.3353 51.318 54.3427 51.2183 55.3042 50.7839C56.0489 50.4476 56.6295 49.9228 56.9896 49.1758C57.2156 48.7068 57.3143 48.2087 57.3181 47.6851C57.3231 47.0167 57.1556 46.4015 56.8069 45.838C56.299 45.0172 55.5665 44.5111 54.6291 44.3004C53.9886 44.1566 53.3685 44.2172 52.7705 44.4867C52.2288 44.7308 51.8293 45.1162 51.6233 45.6867C51.6094 45.7254 51.6086 45.7741 51.5265 45.7942Z" fill="#FDD11B"/>
<path d="M47.7842 12.9832C47.0716 12.9712 46.3574 12.9852 45.647 12.9388C45.1259 12.9047 44.6033 12.8906 44.082 12.8383C43.6961 12.7996 43.3076 12.7613 42.9187 12.7389C42.5864 12.7199 42.2558 12.6683 41.9248 12.6275C41.649 12.5934 41.3741 12.5512 41.0982 12.5169C40.4589 12.4372 39.8258 12.32 39.195 12.1904C37.7587 11.8954 36.3544 11.4754 34.944 11.0812C33.6389 10.7164 32.3254 10.3878 31.0024 10.1003C30.2991 9.94752 29.5919 9.8038 28.8763 9.7095C28.4689 9.65571 28.0651 9.57452 27.6581 9.51703C27.3499 9.47349 27.0395 9.44743 26.7298 9.41482C26.3538 9.37532 25.978 9.33515 25.6017 9.29901C25.4469 9.28404 25.2909 9.28102 25.1356 9.26858C24.9249 9.25177 24.7146 9.23143 24.5041 9.21227C24.4279 9.20538 24.3846 9.16537 24.3744 9.08653C24.3199 8.66562 24.2692 8.2442 24.205 7.8248C24.1876 7.7115 24.2302 7.66023 24.3155 7.61215C24.6947 7.3985 25.0846 7.20754 25.4923 7.05542C26.3284 6.74343 27.1941 6.54457 28.0707 6.39177C28.5191 6.31361 28.9693 6.24469 29.4204 6.18249C29.7064 6.14299 29.9953 6.125 30.2827 6.09474C30.6361 6.05759 30.9887 6.0112 31.3426 5.98077C31.7972 5.94161 32.2526 5.91051 32.7082 5.88294C34.0425 5.80175 35.3785 5.78309 36.7148 5.78561C37.0112 5.78612 37.0112 5.78276 37.0333 5.49346C37.0529 5.23762 37.0529 5.22955 37.2993 5.22938C37.8338 5.22904 38.3683 5.23661 38.9028 5.24401C39.0223 5.24569 39.0487 5.28031 39.0566 5.41177C39.0586 5.44522 39.0579 5.479 39.0576 5.51246C39.0541 5.80663 39.0522 5.80141 39.3589 5.79637C40.2282 5.78208 41.0951 5.85134 41.9618 5.89689C42.4264 5.92127 42.8945 5.9411 43.3584 6.01019C43.7095 6.06247 44.0673 6.06785 44.4216 6.09995C44.687 6.12399 44.9555 6.13845 45.2157 6.19224C45.4782 6.24653 45.7448 6.26267 46.0081 6.29982C46.5147 6.37126 47.0191 6.45447 47.5215 6.54776C48.3079 6.69367 49.0857 6.88228 49.845 7.1356C50.4379 7.33345 50.9966 7.61232 51.5348 7.9307C51.7269 8.04433 51.7271 8.04971 51.6871 8.27227C51.5686 8.93188 51.4437 9.59032 51.3285 10.2504C51.2634 10.6238 51.2148 11 51.1546 11.3743C51.0907 11.7712 51.0292 12.1681 50.9958 12.569C50.9903 12.6354 50.97 12.7006 50.9568 12.7665C50.942 12.8418 50.8981 12.887 50.8207 12.8874C50.3419 12.8892 49.8683 12.9765 49.3878 12.9649C48.8536 12.9519 48.3188 12.9618 47.7843 12.9618C47.7842 12.9691 47.7842 12.9761 47.7842 12.9832Z" fill="#FDD11B"/>
<path d="M50.8051 13.6952C50.7743 14.0529 50.6784 14.3696 50.6133 14.7025C50.5505 14.7079 50.496 14.7188 50.442 14.7164C49.7389 14.6865 49.0404 14.7793 48.3391 14.7981C48.0072 14.807 47.6767 14.8721 47.3458 14.9141C46.9826 14.9602 46.6218 15.022 46.2607 15.0835C45.4625 15.2192 44.6774 15.4058 43.9038 15.6416C42.8636 15.9587 41.8426 16.3322 40.8226 16.7094C40.3562 16.8818 39.8733 17.0106 39.3943 17.1468C38.9575 17.271 38.5181 17.3875 38.0758 17.4899C37.7529 17.5647 37.4241 17.6137 37.0971 17.6697C36.8459 17.7126 36.5938 17.7494 36.3419 17.7869C36.2541 17.7998 36.1653 17.8087 36.0769 17.8151C35.9881 17.8217 35.8983 17.8175 35.8101 17.8274C34.7543 17.9467 33.696 17.8798 32.6384 17.8758C32.1427 17.7946 31.6395 17.8148 31.1404 17.7655C30.7542 17.7274 30.3665 17.6869 29.9778 17.6637C29.6685 17.6453 29.3614 17.5884 29.0536 17.5463C28.8341 17.5162 28.6136 17.493 28.3942 17.4633C27.7883 17.3814 27.19 17.2681 26.597 17.1231C26.2636 17.0415 25.9334 16.9472 25.6001 16.8664C25.5221 16.8476 25.4889 16.8146 25.4773 16.7373C25.4347 16.4502 25.3849 16.1642 25.3418 15.8773C25.2787 15.4577 25.2195 15.0375 25.158 14.6178C25.0933 14.1768 25.0291 13.7359 24.9621 13.2953C24.8984 12.8768 24.8278 12.4594 24.7673 12.0405C24.7307 11.7867 24.711 11.5305 24.677 11.2762C24.6401 10.9996 24.5871 10.7253 24.5561 10.4483C24.4971 9.91995 24.4456 9.97324 24.9428 10.0191C25.3289 10.0548 25.7191 10.0585 26.1039 10.1302C26.4082 10.1871 26.722 10.1908 27.0308 10.2247C27.2627 10.2503 27.4939 10.2839 27.7246 10.3187C28.1745 10.3868 28.6251 10.451 29.0732 10.5301C29.5304 10.6108 29.9843 10.7115 30.4409 10.7964C31.1386 10.9262 31.8285 11.0896 32.5185 11.2553C33.4442 11.4777 34.3649 11.7188 35.2836 11.9687C36.3843 12.2681 37.4841 12.5717 38.5883 12.8576C38.9943 12.9627 39.4117 13.0239 39.8244 13.1027C40.1395 13.163 40.4548 13.2242 40.7713 13.2767C41.0563 13.3241 41.3427 13.3629 41.6291 13.4007C41.9596 13.4443 42.2908 13.4831 42.6219 13.5224C42.7212 13.5342 42.8211 13.5408 42.9208 13.55C43.0647 13.5634 43.2087 13.5771 43.3525 13.5907C43.463 13.6013 43.5733 13.6203 43.6838 13.6209C43.9072 13.6224 44.129 13.6339 44.3491 13.6741C44.3818 13.6801 44.4153 13.6846 44.4485 13.6862C45.0603 13.7134 45.6718 13.7517 46.2837 13.7637C46.9742 13.7771 47.6652 13.7618 48.3558 13.7684C48.9468 13.7739 49.5361 13.7497 50.1251 13.706C50.3467 13.689 50.5678 13.6952 50.8051 13.6952Z" fill="#FCFDFD"/>
<path d="M49.539 20.3386C49.4839 20.3262 49.3658 20.2934 49.246 20.2732C48.8078 20.1991 48.3709 20.1112 47.9297 20.0631C47.5545 20.0222 47.18 19.9658 46.8004 19.9599C46.244 19.9513 45.6887 19.8941 45.1315 19.9091C44.4419 19.9274 43.7531 19.956 43.0648 20.0143C42.543 20.0587 42.0242 20.1229 41.5093 20.2076C40.7215 20.3374 39.9436 20.5173 39.1729 20.7314C37.9168 21.0806 36.7096 21.56 35.507 22.0572C33.7594 22.7799 31.9712 23.3832 30.1497 23.8905C29.3684 24.108 28.5795 24.286 27.7847 24.4407C27.4687 24.5022 27.1502 24.5513 26.8321 24.6017C26.6952 24.6234 26.6529 24.5953 26.6254 24.4553C26.5806 24.2255 26.5444 23.9939 26.5072 23.7627C26.4153 23.1904 26.3247 22.6178 26.2339 22.0453C26.1289 21.3831 26.0237 20.7212 25.9196 20.059C25.8243 19.4527 25.73 18.8462 25.6362 18.2396C25.6141 18.0969 25.634 17.9493 25.5775 17.8097C25.5581 17.7618 25.5947 17.723 25.6487 17.7291C25.7258 17.7376 25.8029 17.7506 25.878 17.7697C26.4486 17.9156 27.0255 18.0283 27.6045 18.1362C28.1834 18.2441 28.7671 18.3157 29.3492 18.3952C29.9324 18.4751 30.5217 18.5112 31.1088 18.56C31.6967 18.6089 32.2847 18.6647 32.8737 18.6911C33.797 18.7323 34.7206 18.7368 35.6441 18.6662C36.3438 18.6127 37.0379 18.521 37.7267 18.3924C38.513 18.2455 39.2839 18.0333 40.0436 17.7825C41.1405 17.4201 42.2355 17.0515 43.3304 16.6832C44.1312 16.4139 44.9431 16.1824 45.7678 16.0034C46.244 15.9 46.7273 15.8275 47.21 15.7536C47.8938 15.6487 48.5814 15.6036 49.2694 15.5578C49.6245 15.5341 49.9816 15.5394 50.3378 15.5372C50.4714 15.5364 50.5064 15.5793 50.4875 15.6958C50.3781 16.3673 50.2659 17.0385 50.1586 17.7104C50.0951 18.1078 50.0407 18.5067 49.9786 18.9044C49.9097 19.3456 49.8381 19.7864 49.7646 20.227C49.7468 20.3352 49.7191 20.35 49.539 20.3386Z" fill="#FCD11B"/>
<path d="M48.5801 25.0549C48.0565 24.9935 47.5337 24.9883 47.01 25.0139C46.6431 25.0317 46.2753 25.0366 45.9093 25.0651C45.5662 25.092 45.2253 25.1468 44.8828 25.1815C44.5399 25.2163 44.2012 25.2748 43.8615 25.3319C43.2144 25.4407 42.5798 25.6019 41.9455 25.7651C40.8922 26.0362 39.8435 26.3262 38.7867 26.5829C37.9996 26.7742 37.2043 26.9297 36.4047 27.065C35.9775 27.1373 35.5477 27.1875 35.1202 27.2546C34.8023 27.3045 34.479 27.3203 34.1577 27.3444C33.6474 27.3827 33.1368 27.4178 32.6261 27.4489C32.3482 27.4659 32.0699 27.4807 31.7917 27.4814C30.3104 27.4847 28.829 27.4842 27.3477 27.4829C27.0508 27.4825 27.0451 27.4753 27.0244 27.1939C26.9955 26.8028 26.9055 26.4212 26.8472 26.0347C26.8177 25.8396 26.7485 25.6494 26.7791 25.4474C26.9642 25.4126 27.1486 25.3739 27.3343 25.3435C28.3866 25.1712 29.4275 24.9471 30.4537 24.6548C32.5194 24.0665 34.53 23.3203 36.5135 22.4991C37.6871 22.0133 38.8867 21.6091 40.1207 21.3146C40.8765 21.1342 41.6409 20.991 42.4163 20.9158C42.7706 20.8815 43.1223 20.8197 43.4771 20.7923C44.3874 20.7219 45.2982 20.6595 46.2122 20.7356C46.7223 20.7782 47.2344 20.7985 47.7433 20.8515C48.1633 20.8952 48.5813 20.9641 48.9974 21.0377C49.1718 21.0686 49.3515 21.0732 49.5212 21.1374C49.5993 21.167 49.6282 21.212 49.6181 21.2863C49.5941 21.463 49.5707 21.64 49.5389 21.8153C49.4237 22.4529 49.3015 23.0892 49.1891 23.7273C49.1273 24.0787 49.0796 24.4329 49.0255 24.7858C49.0186 24.83 49.0143 24.8747 49.0044 24.9184C48.9818 25.0191 48.9454 25.051 48.8456 25.0539C48.7565 25.0571 48.6674 25.0549 48.5801 25.0549Z" fill="#FCD11B"/>
<path d="M48.8653 25.9081C48.7524 26.522 48.6309 27.1438 48.5257 27.7684C48.4369 28.2959 48.3706 28.8271 48.2875 29.3557C48.2288 29.7296 48.1561 30.1011 48.0945 30.4746C48.0367 30.8264 47.9865 31.1794 47.9307 31.5314C47.91 31.6625 47.8879 31.6787 47.7598 31.6906C46.9042 31.7703 46.0484 31.7938 45.1914 31.7101C45.0255 31.694 44.8577 31.6943 44.6906 31.6928C44.5343 31.6915 44.3797 31.6832 44.225 31.6565C44.1047 31.6356 43.9818 31.6293 43.8601 31.617C43.5063 31.5814 43.1519 31.5508 42.7986 31.5094C42.5121 31.4758 42.2272 31.4294 41.9414 31.3889C41.5574 31.3346 41.1721 31.289 40.7899 31.2245C40.2989 31.1414 39.8103 31.0446 39.321 30.9513C38.8848 30.8683 38.4496 30.7805 38.0134 30.698C37.6548 30.6301 37.2949 30.5686 36.9361 30.5013C36.6097 30.4403 36.2849 30.3719 35.9582 30.3131C35.6202 30.2522 35.281 30.1984 34.9421 30.1424C34.5259 30.0737 34.1088 30.0108 33.694 29.9353C33.4969 29.8995 33.2975 29.9044 33.099 29.8631C32.8181 29.8044 32.5266 29.797 32.2397 29.7674C32.1181 29.7548 31.9966 29.7414 31.8751 29.7288C31.7645 29.7173 31.6542 29.7002 31.5434 29.6973C31.3982 29.6935 31.2546 29.6844 31.1117 29.6563C31.0246 29.6393 30.935 29.6319 30.8462 29.6282C29.7893 29.5837 28.7326 29.5255 27.674 29.5519C27.6071 29.5536 27.5403 29.5539 27.4736 29.5514C27.3448 29.5465 27.3338 29.5358 27.3116 29.3947C27.2663 29.1081 27.2216 28.8215 27.1775 28.5348C27.1725 28.5016 27.1718 28.4679 27.1705 28.4342C27.1656 28.3213 27.1925 28.289 27.2958 28.2861C27.3403 28.285 27.385 28.2883 27.4294 28.2883C28.9555 28.2907 30.4816 28.2932 32.0076 28.2949C32.4199 28.2954 32.8317 28.2909 33.242 28.2387C33.3849 28.2206 33.531 28.2261 33.6758 28.2241C33.832 28.2219 33.9874 28.2194 34.1406 28.1819C34.1944 28.1688 34.2513 28.1555 34.3056 28.1592C34.6309 28.1821 34.9441 28.0789 35.2677 28.0703C35.4981 28.0643 35.7273 28.0026 35.9562 27.9605C36.1527 27.9244 36.3514 27.9031 36.5484 27.8715C37.1183 27.78 37.6831 27.6618 38.2456 27.5374C39.0231 27.3656 39.795 27.1678 40.5667 26.9713C41.2635 26.794 41.9552 26.5958 42.6528 26.4216C43.2015 26.2846 43.7532 26.1616 44.3128 26.0693C44.8398 25.9824 45.3703 25.9269 45.8997 25.8923C46.8208 25.8321 47.7439 25.7534 48.6685 25.8435C48.7337 25.8501 48.8034 25.8402 48.8653 25.9081Z" fill="#FBFCFC"/>
<path d="M30.9787 36.7833C31.5355 36.7833 32.0922 36.783 32.6489 36.7833C33.3399 36.7838 34.0274 36.7278 34.7131 36.6483C35.1764 36.5947 35.6404 36.5439 36.102 36.4784C36.4863 36.4239 36.8665 36.3393 37.2512 36.2864C38.11 36.1684 38.9565 35.9811 39.8103 35.8366C40.3349 35.7478 40.8634 35.6826 41.3884 35.596C41.9921 35.4965 42.5994 35.4357 43.2075 35.3709C44.2262 35.2624 45.2445 35.166 46.2693 35.1447C46.5806 35.1381 46.8914 35.1048 47.2026 35.0902C47.3343 35.084 47.3624 35.1153 47.3467 35.246C47.3295 35.3898 47.3002 35.5321 47.2748 35.6749C47.1511 36.3676 47.0279 37.0603 46.9018 37.7525C46.8759 37.8953 46.8647 37.9016 46.7334 37.901C46.4663 37.8996 46.1991 37.8939 45.9318 37.8939C45.5534 37.8937 45.1766 37.9114 44.7984 37.9425C44.3997 37.9754 44.0005 38.008 43.6037 38.0558C43.1299 38.1129 42.6573 38.1866 42.1877 38.2726C41.2488 38.4448 40.319 38.6623 39.4055 38.94C38.4489 39.2306 37.5075 39.5687 36.5634 39.8985C35.515 40.2647 34.4517 40.5813 33.3569 40.7801C32.877 40.8674 32.4005 40.9797 31.9176 41.0425C31.4333 41.1057 30.9508 41.1839 30.4621 41.2207C30.0848 41.2491 29.7086 41.2883 29.3296 41.289C29.2517 41.2891 29.1738 41.2893 29.0961 41.2858C29.0193 41.2822 28.975 41.2387 28.9618 41.1625C28.9523 41.1074 28.9392 41.0528 28.9322 40.9975C28.8775 40.5655 28.8289 40.1325 28.7684 39.7013C28.7095 39.2817 28.6356 38.8643 28.5741 38.4451C28.4995 37.9373 28.4307 37.4286 28.3599 36.9201C28.3429 36.7972 28.371 36.7668 28.5077 36.7705C28.9305 36.7818 29.3534 36.8001 29.7763 36.8067C30.1771 36.8129 30.5778 36.808 30.9787 36.808C30.9787 36.7999 30.9787 36.7917 30.9787 36.7833Z" fill="#FCD01B"/>
<path d="M41.5044 43.7858C41.3314 43.773 41.1095 43.7547 40.8872 43.7409C40.6984 43.7291 40.5092 43.7241 40.3202 43.7128C40.1537 43.7029 39.9874 43.6899 39.8212 43.6758C39.378 43.6383 38.9348 43.601 38.4919 43.5607C38.1819 43.5324 37.8718 43.5042 37.5629 43.4665C37.1773 43.4196 36.7896 43.3855 36.4061 43.3321C36.0197 43.2781 35.628 43.2956 35.2452 43.2172C35.1801 43.204 35.1123 43.2028 35.0457 43.2008C34.0994 43.1732 33.1523 43.1512 32.2074 43.207C31.8441 43.2285 31.4786 43.2653 31.1154 43.3196C30.8754 43.3556 30.6347 43.406 30.3899 43.4168C30.3023 43.4206 30.2149 43.4438 30.129 43.4644C30.0078 43.4933 29.883 43.5018 29.7642 43.4786C29.6463 43.4556 29.5324 43.4055 29.4209 43.3574C29.2812 43.2973 29.3042 43.153 29.2758 43.0384C29.2091 42.7686 29.1467 42.4976 29.0857 42.2265C29.0685 42.1502 29.1126 42.0912 29.1939 42.0957C29.5858 42.1179 29.9693 42.0293 30.3585 42.0113C30.7011 41.9955 31.0413 41.9313 31.3827 41.8883C31.5915 41.8619 31.8003 41.8326 32.0085 41.8051C32.7663 41.7047 33.52 41.5768 34.2655 41.4131C35.3156 41.1824 36.3461 40.8772 37.3547 40.4995C38.1126 40.2157 38.8789 39.9555 39.653 39.7202C40.4476 39.4788 41.254 39.2845 42.071 39.135C42.431 39.0691 42.7881 38.9861 43.149 38.9276C43.4113 38.8851 43.6802 38.8822 43.9425 38.839C44.2728 38.7847 44.6074 38.7869 44.9377 38.745C45.4933 38.6746 46.05 38.7094 46.6062 38.704C46.7142 38.703 46.7293 38.7336 46.7091 38.8496C46.5751 39.6175 46.4437 40.3858 46.3077 41.1534C46.2182 41.6582 46.1222 42.1618 46.0296 42.6659C46.0236 42.6988 46.0149 42.7335 46.0193 42.7657C46.0519 43.0031 45.9139 43.1406 45.7402 43.2598C45.5088 43.4185 45.2729 43.5502 44.9797 43.5711C44.6925 43.5916 44.4081 43.6536 44.122 43.694C44.0341 43.7064 43.9448 43.7086 43.8559 43.7128C43.7335 43.7187 43.6098 43.7123 43.4889 43.7284C42.8459 43.814 42.1996 43.7834 41.5044 43.7858Z" fill="#FBFCFC"/>
<path d="M30.6266 66.1019C29.3567 66.1019 28.0866 66.1014 26.8166 66.1025C26.6491 66.1026 26.4827 66.0976 26.3182 66.0618C26.0183 65.9965 25.8279 65.8174 25.7399 65.5208C25.701 65.3897 25.6881 65.2576 25.6881 65.123C25.6876 64.126 25.6876 63.129 25.6878 62.132C25.6878 62.0873 25.6861 62.0421 25.691 61.9977C25.7098 61.8249 25.8167 61.7044 25.9902 61.6918C26.1674 61.679 26.347 61.68 26.5242 61.6934C26.6773 61.705 26.7874 61.8227 26.8083 61.9787C26.8201 62.067 26.8151 62.1576 26.8151 62.2472C26.8156 62.9417 26.8153 63.6361 26.8156 64.3307C26.8156 64.4203 26.8151 64.5099 26.8206 64.5993C26.8245 64.6629 26.8633 64.6983 26.9285 64.7007C26.9619 64.7019 26.9952 64.7036 27.0286 64.7036C27.7639 64.7036 28.4992 64.7036 29.2344 64.7032C29.2679 64.7032 29.3012 64.7015 29.3346 64.7005C29.3993 64.6983 29.4389 64.6642 29.4434 64.6003C29.4491 64.5223 29.4484 64.4438 29.4486 64.3655C29.4491 63.9846 29.4486 63.6039 29.4489 63.223C29.4489 63.1557 29.4451 63.088 29.453 63.0216C29.4752 62.833 29.5909 62.7133 29.779 62.7C29.9341 62.6891 30.0913 62.6891 30.2466 62.699C30.4567 62.7124 30.5684 62.8308 30.5771 63.0434C30.5841 63.2112 30.579 63.3795 30.5793 63.5474C30.5796 63.8834 30.5781 64.2194 30.5813 64.5555C30.5823 64.6698 30.6109 64.6956 30.7155 64.7017C30.76 64.7042 30.8047 64.7039 30.8491 64.703C31.0273 64.7 31.0372 64.6938 31.0382 64.5099C31.0407 64.0843 31.0389 63.6585 31.0394 63.2329C31.0394 63.1545 31.0352 63.0754 31.0442 62.9979C31.062 62.8442 31.1711 62.7166 31.3208 62.7052C31.5088 62.6909 31.6998 62.6911 31.8877 62.7064C32.0366 62.7185 32.1436 62.8454 32.163 63.0014C32.1726 63.0787 32.1682 63.1579 32.1684 63.2364C32.1691 63.6733 32.1675 64.1102 32.1704 64.5471C32.1712 64.6825 32.1925 64.6982 32.3284 64.703C32.6221 64.7136 32.6286 64.7091 32.6298 64.4171C32.6315 64.0251 32.6301 63.6329 32.6305 63.2409C32.6305 63.1626 32.6273 63.0838 32.6343 63.0059C32.649 62.8436 32.7453 62.7207 32.8993 62.7074C33.0871 62.6911 33.2782 62.6909 33.4661 62.7061C33.6112 62.7177 33.7113 62.8123 33.7366 62.9624C33.7513 63.05 33.7515 63.1406 33.7518 63.2298C33.7533 63.6108 33.7521 63.9915 33.7528 64.3724C33.753 64.4506 33.7543 64.5291 33.761 64.6069C33.765 64.6545 33.7963 64.6867 33.8441 64.6972C33.8656 64.7019 33.8884 64.703 33.9106 64.7027C34.5488 64.6914 34.4438 64.81 34.4496 64.1898C34.4556 63.5514 34.451 62.9128 34.451 62.2744C34.451 62.1961 34.456 62.1172 34.4506 62.0392C34.4378 61.8511 34.613 61.6839 34.7798 61.6862C34.9358 61.6884 35.0923 61.6786 35.2474 61.6891C35.4506 61.7029 35.5622 61.8274 35.5783 62.0392C35.5825 62.0949 35.5798 62.1512 35.5798 62.2071C35.5798 63.1482 35.5793 64.0892 35.5801 65.03C35.5803 65.1873 35.5693 65.342 35.5298 65.4958C35.4489 65.8118 35.2444 65.9912 34.9353 66.0621C34.7711 66.0998 34.6044 66.1026 34.4369 66.1026C33.1666 66.1014 31.8965 66.1019 30.6266 66.1019Z" fill="#F6D418"/>
<path d="M51.7339 66.1382C51.1106 66.1382 50.4875 66.1387 49.8642 66.1379C49.753 66.1377 49.6412 66.1384 49.5307 66.1281C49.1341 66.0911 48.8992 65.8825 48.8126 65.4962C48.7807 65.3539 48.7675 65.2098 48.7678 65.0634C48.7693 64.1123 48.7768 63.1609 48.7638 62.2099C48.7593 61.8795 48.865 61.6551 49.2744 61.6895C49.3628 61.6969 49.4528 61.686 49.5412 61.6932C49.7321 61.7085 49.8493 61.8196 49.8707 62.0082C49.8808 62.0967 49.8761 62.1871 49.8761 62.2765C49.8764 62.9926 49.8763 63.7089 49.8764 64.425C49.8764 64.492 49.8778 64.5591 49.8804 64.6262C49.8833 64.6931 49.9229 64.7242 49.9864 64.7267C50.0419 64.7289 50.0976 64.7302 50.1533 64.7297C50.5525 64.7262 50.5122 64.7701 50.5137 64.3732C50.5151 64.0039 50.5139 63.6346 50.5141 63.2654C50.5141 63.1984 50.5107 63.1308 50.5169 63.0641C50.5385 62.8354 50.6503 62.7248 50.8824 62.71C51.0043 62.7023 51.1271 62.7107 51.2495 62.7082C51.4613 62.7036 51.6309 62.8825 51.625 63.0911C51.6143 63.4824 51.6218 63.8743 51.6227 64.2659C51.6228 64.389 51.6242 64.512 51.628 64.6349C51.6295 64.6848 51.6586 64.7173 51.7096 64.7217C51.765 64.7264 51.8206 64.7296 51.876 64.7285C52.0463 64.7254 52.0641 64.7106 52.0652 64.5341C52.0679 64.12 52.0659 63.706 52.0666 63.292C52.0667 63.2026 52.0637 63.1123 52.0732 63.0237C52.0921 62.847 52.1951 62.7322 52.3705 62.7152C52.5248 62.7003 52.6825 62.7003 52.8371 62.7134C53.0414 62.7305 53.1583 62.8576 53.1618 63.0674C53.1685 63.4702 53.1641 63.8731 53.1645 64.2759C53.1645 64.3765 53.1625 64.4774 53.1656 64.5779C53.1698 64.7062 53.1909 64.724 53.3276 64.7287C53.3609 64.7299 53.3943 64.7297 53.4278 64.7289C53.5956 64.7248 53.6157 64.708 53.6167 64.533C53.6192 64.0854 53.6321 63.6373 53.6134 63.1905C53.5981 62.8279 53.7698 62.6845 54.0853 62.7065C54.185 62.7134 54.2864 62.7013 54.3854 62.7124C54.5927 62.7354 54.7047 62.8541 54.7059 63.0681C54.7099 63.8065 54.7067 64.5452 54.7067 65.2838C54.7067 65.4088 54.6782 65.5278 54.6354 65.6438C54.532 65.9242 54.3152 66.0666 54.036 66.1162C53.9058 66.1394 53.77 66.1364 53.6366 66.1367C53.0025 66.1392 52.3682 66.1382 51.7339 66.1382Z" fill="#F6D619"/>
<path d="M38.5008 63.6546C38.5008 63.1734 38.4988 62.6921 38.5013 62.211C38.5034 61.7879 38.5967 61.6943 39.0075 61.6911C39.0742 61.6906 39.1411 61.6891 39.2078 61.6916C39.4838 61.702 39.592 61.8069 39.6035 62.076C39.6069 62.1542 39.6043 62.2327 39.6043 62.311C39.6043 62.9937 39.6043 63.6763 39.6043 64.359C39.6043 64.4373 39.6023 64.5158 39.6059 64.594C39.6105 64.6982 39.638 64.7232 39.752 64.7288C39.8187 64.7321 39.8856 64.7308 39.9523 64.7305C40.2422 64.7288 40.243 64.7286 40.2447 64.4353C40.2462 64.1779 40.2428 63.9204 40.2468 63.663C40.249 63.518 40.2582 63.3737 40.3089 63.2337C40.3993 62.9838 40.5622 62.8152 40.8221 62.7541C40.9296 62.7289 41.0408 62.7093 41.1508 62.7066C41.4178 62.6997 41.685 62.7042 41.9521 62.7042C41.9744 62.7042 41.9966 62.704 42.0188 62.7054C42.563 62.7358 42.8588 63.0229 42.8737 63.5765C42.889 64.1468 42.8783 64.7178 42.8743 65.2885C42.8737 65.3766 42.8541 65.4662 42.8329 65.5525C42.7514 65.8844 42.5249 66.0574 42.2026 66.1201C42.1591 66.1285 42.1141 66.1326 42.0697 66.1326C41.1572 66.1336 40.2445 66.1339 39.332 66.1332C39.2767 66.1332 39.2202 66.1285 39.166 66.1171C38.8712 66.0551 38.6633 65.8939 38.5711 65.5948C38.5143 65.4102 38.5018 65.2215 38.5011 65.0312C38.4998 64.5723 38.5008 64.1134 38.5008 63.6546ZM41.7888 64.2727C41.7895 64.2727 41.7901 64.2727 41.791 64.2727C41.791 64.1947 41.7918 64.1169 41.7908 64.0389C41.7875 63.7839 41.7811 63.778 41.5312 63.7827C41.5091 63.7832 41.4869 63.7837 41.4648 63.7841C41.3852 63.7856 41.3417 63.8258 41.3412 63.9064C41.3399 64.0957 41.3386 64.2848 41.3399 64.4741C41.3419 64.7293 41.3493 64.7355 41.598 64.7301C41.6201 64.7296 41.6423 64.7291 41.6644 64.7281C41.7415 64.7246 41.7878 64.6881 41.7885 64.6066C41.7895 64.4953 41.7888 64.384 41.7888 64.2727Z" fill="#F8D719"/>
<path d="M22.4926 64.6875C22.5399 64.6023 22.5281 64.5224 22.5284 64.4449C22.5297 64.2212 22.5272 63.9973 22.5297 63.7735C22.5309 63.6618 22.5333 63.5493 22.5463 63.4385C22.597 63.006 22.8519 62.7515 23.2802 62.7009C23.3354 62.6944 23.3913 62.6927 23.4469 62.6925C23.7363 62.6917 24.0257 62.6934 24.3149 62.6917C24.4616 62.6908 24.6035 62.7132 24.7391 62.7685C24.9459 62.8529 25.0897 62.9979 25.1626 63.2138C25.2097 63.3536 25.2293 63.496 25.2291 63.6426C25.2286 64.1462 25.2291 64.6497 25.2288 65.1533C25.2286 65.2881 25.2117 65.4192 25.1709 65.5497C25.086 65.8213 24.9001 65.9835 24.6349 66.0497C24.496 66.0844 24.3492 66.0951 24.2054 66.0992C23.9386 66.1064 23.6713 66.0992 23.4043 66.1012C23.2933 66.102 23.1809 66.1022 23.0716 66.1188C22.766 66.1657 22.5751 66.3705 22.5505 66.6825C22.5383 66.8381 22.5468 66.9956 22.5455 67.1521C22.5448 67.2305 22.5501 67.3098 22.5396 67.3868C22.518 67.544 22.4085 67.6611 22.2561 67.6702C22.0676 67.6815 21.8776 67.681 21.6891 67.6689C21.5537 67.6603 21.4728 67.5645 21.4313 67.4382C21.4211 67.407 21.4188 67.372 21.4188 67.3389C21.4175 66.9249 21.4083 66.5107 21.4198 66.097C21.4273 65.8268 21.5019 65.5671 21.6223 65.3237C21.7739 65.0171 22.0071 64.8073 22.343 64.7235C22.3957 64.7102 22.449 64.6979 22.4926 64.6875ZM23.6529 64.2237C23.6509 64.2237 23.6487 64.2237 23.6467 64.2237C23.6467 64.2793 23.6472 64.3348 23.6465 64.3905C23.6427 64.7416 23.6516 64.703 23.9834 64.7019C23.9945 64.7019 24.0053 64.6993 24.0164 64.6979C24.0685 64.6912 24.0946 64.6545 24.0959 64.6085C24.1011 64.4308 24.1035 64.2531 24.1031 64.0753C24.1026 63.7598 24.047 63.7139 23.7377 63.7692C23.6898 63.7777 23.6557 63.8095 23.6541 63.8571C23.6502 63.9793 23.6529 64.1015 23.6529 64.2237Z" fill="#F8D719"/>
<path d="M48.3074 64.8449C48.3074 65.2031 48.3087 65.5615 48.3069 65.9197C48.3057 66.1562 48.2761 66.3884 48.1905 66.6109C48.0252 67.0406 47.7321 67.3452 47.3095 67.5235C46.9179 67.6888 46.5073 67.6998 46.0942 67.663C45.8854 67.6444 45.7747 67.5171 45.7627 67.3092C45.755 67.1754 45.7533 67.0397 45.7659 66.9066C45.7837 66.7163 45.9051 66.6018 46.0935 66.5921C46.2378 66.5845 46.3829 66.5914 46.5277 66.5931C46.663 66.5946 46.794 66.5743 46.9198 66.5232C47.0256 66.4803 47.1124 66.4156 47.1714 66.3132C47.2319 66.208 47.2033 66.1421 47.0858 66.1396C46.9522 66.1367 46.8186 66.1396 46.685 66.1376C46.5961 66.1362 46.5065 66.1362 46.4182 66.1263C46.0359 66.0834 45.8092 65.8871 45.719 65.5129C45.6931 65.4053 45.6813 65.292 45.6804 65.1813C45.6764 64.6775 45.6803 64.1737 45.6777 63.6697C45.6771 63.5223 45.6983 63.3798 45.7446 63.2407C45.8286 62.9889 45.9942 62.8247 46.2522 62.7538C46.5003 62.6855 47.4982 62.685 47.7455 62.7538C48.0448 62.8371 48.2206 63.038 48.2795 63.3362C48.3096 63.4887 48.3154 63.6475 48.3179 63.8037C48.3233 64.1507 48.3196 64.4978 48.3196 64.8449C48.3154 64.8449 48.3114 64.8449 48.3074 64.8449ZM47.2192 64.6839C47.2192 64.4941 47.2184 64.2947 47.2194 64.0952C47.2212 63.7523 47.2314 63.7788 46.8842 63.7854C46.8203 63.7866 46.7802 63.8242 46.7785 63.8888C46.7743 64.0555 46.7715 64.2226 46.7733 64.3893C46.7775 64.7385 46.7059 64.7511 47.1428 64.7232C47.1627 64.722 47.1816 64.7039 47.2192 64.6839Z" fill="#F8D719"/>
<path d="M45.2222 64.6115C45.2222 65.0472 45.221 65.4831 45.2227 65.9188C45.2236 66.1446 45.1891 66.3641 45.1139 66.5764C44.9557 67.0224 44.6583 67.3382 44.2233 67.5173C44.0068 67.6063 43.7806 67.6648 43.544 67.6689C43.4544 67.6704 43.3678 67.6615 43.2862 67.6163C43.1921 67.5641 43.1232 67.4899 43.117 67.3829C43.1073 67.216 43.1018 67.0473 43.1162 66.8813C43.1314 66.7058 43.2417 66.6084 43.4273 66.5924C43.5495 66.582 43.6704 66.5737 43.7879 66.5352C44.0016 66.4651 44.1175 66.3177 44.1337 66.0935C44.1394 66.0156 44.1355 65.9371 44.1355 65.859C44.1355 64.9987 44.1355 64.1383 44.1357 63.2779C44.1357 63.1884 44.132 63.0987 44.1389 63.0097C44.1512 62.8465 44.2452 62.7275 44.4032 62.7147C44.6016 62.6988 44.8033 62.6998 45.0019 62.7147C45.1207 62.7238 45.2025 62.8102 45.2177 62.9363C45.2284 63.0245 45.2287 63.1145 45.2289 63.2036C45.2299 63.6729 45.2294 64.142 45.2294 64.6114C45.2269 64.6115 45.2246 64.6115 45.2222 64.6115Z" fill="#F8D719"/>
<path d="M27.706 32.3129C27.6154 31.7167 27.5238 31.1207 27.4352 30.5242C27.4143 30.3836 27.4313 30.3628 27.5652 30.3628C28.0997 30.3626 28.6349 30.3512 29.1687 30.3719C29.8244 30.3974 30.4801 30.4255 31.1347 30.4864C31.4884 30.5193 31.843 30.5521 32.1975 30.5823C32.4855 30.6069 32.7736 30.6366 33.0598 30.6766C33.7095 30.7674 34.3593 30.8583 35.0068 30.9636C35.5759 31.056 36.1424 31.1658 36.7093 31.272C37.1677 31.3579 37.6251 31.4501 38.0829 31.5393C38.5298 31.6266 38.9761 31.7172 39.4237 31.8C39.9141 31.8908 40.4068 31.9695 40.8968 32.0624C41.5643 32.189 42.2403 32.2537 42.9137 32.3316C43.6204 32.4131 44.3281 32.4956 45.0413 32.5128C45.6198 32.5265 46.1972 32.5891 46.7768 32.5524C47.0657 32.5341 47.3546 32.5146 47.6437 32.499C47.7326 32.4941 47.7532 32.5269 47.7305 32.6245C47.7179 32.6785 47.6985 32.7309 47.6823 32.7841C47.6606 32.7844 47.6387 32.7847 47.617 32.7851C47.5892 32.6055 47.5895 32.6092 47.4551 32.6259C47.3453 32.6393 47.2343 32.6491 47.1238 32.6494C46.4891 32.6513 45.8547 32.6523 45.22 32.6489C44.832 32.6469 44.4493 32.5509 44.0591 32.5781C44.0375 32.5797 44.0149 32.5726 43.9935 32.5672C43.6697 32.4849 43.3347 32.4985 43.0058 32.4575C42.7216 32.422 42.4365 32.3776 42.1482 32.3608C41.9977 32.3521 41.8434 32.3159 41.6879 32.3134C41.6434 32.3127 41.5984 32.3124 41.5548 32.3048C41.1848 32.2418 40.8142 32.1814 40.4454 32.112C39.9022 32.0098 39.3602 31.9004 38.8177 31.7945C38.557 31.7435 38.2967 31.6916 38.0354 31.6442C37.7094 31.585 37.3814 31.5361 37.0564 31.4717C36.7091 31.403 36.3662 31.3125 36.0183 31.2477C35.5945 31.1687 35.1683 31.1026 34.7418 31.0396C34.6103 31.0202 34.4887 30.9585 34.35 30.9683C34.1612 30.9816 33.9761 30.9555 33.7899 30.9096C33.5757 30.8568 33.3525 30.8462 33.133 30.8195C32.7712 30.7756 32.4113 30.7237 32.0473 30.6918C31.7606 30.6667 31.4709 30.6595 31.1882 30.6202C30.9334 30.5845 30.6816 30.5704 30.4268 30.5638C30.3718 30.5625 30.3139 30.558 30.2631 30.5393C30.1551 30.4998 30.0448 30.501 29.9336 30.5008C29.2433 30.4998 28.5531 30.4986 27.8628 30.4985C27.7963 30.4985 27.7289 30.499 27.6634 30.509C27.5999 30.5188 27.5604 30.5702 27.5803 30.6292C27.6634 30.8755 27.5984 31.1431 27.6943 31.3863C27.6957 31.7671 27.8416 32.1263 27.848 32.5096C27.8523 32.7733 27.9182 33.0369 27.9668 33.2984C28.0014 33.4849 28.0118 33.6753 28.0476 33.859C28.1243 34.2519 28.1643 34.6496 28.2347 35.0428C28.2701 35.2406 28.3027 35.437 28.3064 35.6385C28.3079 35.7254 28.3646 35.7876 28.4507 35.7989C28.6807 35.829 28.9116 35.8712 29.1425 35.8737C29.9662 35.8826 30.7901 35.8772 31.614 35.8767C31.6807 35.8767 31.7529 35.8881 31.8129 35.8668C32.0298 35.7903 32.2525 35.8127 32.4738 35.8112C32.8411 35.8086 33.2086 35.8105 33.5759 35.8098C33.6538 35.8096 33.7379 35.8248 33.8083 35.8007C34.0256 35.7259 34.2478 35.7481 34.4692 35.7424C34.5355 35.7407 34.6063 35.7448 34.6673 35.7237C34.912 35.6392 35.1717 35.6772 35.4223 35.6175C35.6886 35.5541 35.9685 35.5483 36.2393 35.4916C36.355 35.4674 36.4817 35.4343 36.5851 35.5378C36.5331 35.5397 36.4848 35.5499 36.452 35.5962C36.4244 35.5987 36.3968 35.6012 36.3694 35.6037C36.2629 35.6222 36.1425 35.5688 36.0507 35.6651C35.7441 35.714 35.438 35.7683 35.1304 35.8101C34.8771 35.8446 34.6223 35.8786 34.3674 35.8881C33.7444 35.9112 33.125 35.985 32.4999 35.9829C31.6762 35.9804 30.8524 36.0088 30.0287 36.0287C29.5491 36.0403 29.0724 35.9893 28.5943 35.9698C28.561 35.9685 28.5277 35.964 28.4946 35.9591C28.2454 35.9224 28.2209 35.8918 28.1857 35.6484C28.1231 35.2176 28.0511 34.7881 27.9882 34.3573C27.9287 33.949 27.876 33.5395 27.8197 33.1307C27.7925 32.9322 27.7246 32.738 27.7587 32.5331C27.7612 32.4549 27.7796 32.3727 27.706 32.3129Z" fill="#E2DC1D"/>
<path d="M37.208 63.9077C37.208 64.4559 37.208 65.0041 37.208 65.5522C37.208 65.6193 37.2112 65.6867 37.2064 65.7536C37.1903 65.9762 37.0711 66.1004 36.8476 66.1145C36.7036 66.1236 36.5579 66.1241 36.4141 66.1133C36.2063 66.0979 36.0932 65.9787 36.0733 65.7704C36.068 65.715 36.0713 65.6586 36.0713 65.6027C36.0713 64.4727 36.0712 63.3429 36.0713 62.213C36.0713 62.1459 36.0678 62.0782 36.0755 62.0118C36.0978 61.8193 36.2098 61.7006 36.3975 61.689C36.5637 61.6788 36.7317 61.6786 36.8977 61.6911C37.0664 61.7038 37.1805 61.8245 37.2022 61.995C37.212 62.0721 37.2082 62.1513 37.2082 62.2295C37.2082 62.7891 37.208 63.3483 37.208 63.9077Z" fill="#F6D418"/>
<path d="M30.9216 62.2934C30.6153 62.2873 30.3622 62.0295 30.3734 61.7348C30.3839 61.4554 30.6374 61.2213 30.9313 61.2193C31.2383 61.2171 31.5012 61.4695 31.4964 61.7615C31.4915 62.0589 31.2316 62.2996 30.9216 62.2934Z" fill="#F1D118"/>
<path d="M32.2246 61.2194C32.5346 61.22 32.7884 61.4698 32.7814 61.7674C32.7747 62.0533 32.5319 62.2874 32.2363 62.2932C31.9292 62.2992 31.6629 62.0555 31.6564 61.7623C31.6498 61.4757 31.9187 61.2187 32.2246 61.2194Z" fill="#F1D118"/>
<path d="M32.1158 60.6541C32.1218 60.9526 31.8694 61.2055 31.5641 61.2068C31.2635 61.2081 30.9915 60.9489 30.9942 60.6637C30.9967 60.3843 31.2436 60.1456 31.538 60.138C31.86 60.1298 32.1098 60.3529 32.1158 60.6541Z" fill="#F1D118"/>
<path d="M53.2132 61.2256C53.5018 61.217 53.7584 61.4515 53.7725 61.7368C53.7877 62.0454 53.5511 62.2992 53.242 62.3059C52.9411 62.3125 52.7052 62.0938 52.6849 61.7991C52.6615 61.4592 52.9473 61.2341 53.2132 61.2256Z" fill="#F1D118"/>
<path d="M51.9757 61.2255C52.225 61.2289 52.5281 61.435 52.5075 61.7932C52.4905 62.0907 52.2611 62.3096 51.9586 62.3057C51.6507 62.3019 51.4103 62.0492 51.4223 61.7424C51.4335 61.4574 51.6873 61.2203 51.9757 61.2255Z" fill="#F1D118"/>
<path d="M52.5692 61.2122C52.27 61.2068 52.0155 60.9385 52.0299 60.6435C52.0438 60.3581 52.2945 60.1268 52.5868 60.1298C52.8939 60.133 53.1343 60.387 53.1216 60.6948C53.1097 60.9824 52.859 61.2174 52.5692 61.2122Z" fill="#F1D118"/>
<path d="M42.7435 34.5745C42.7047 34.5799 42.6661 34.5852 42.6275 34.5906C42.4197 34.5935 42.2119 34.5965 42.0039 34.5994C42.041 34.552 42.0915 34.5351 42.1494 34.5338C42.249 34.5314 42.3515 34.5424 42.4478 34.523C42.8159 34.4494 43.1844 34.3855 43.5619 34.397C43.6055 34.3983 43.6539 34.3971 43.6926 34.3802C43.8307 34.3196 43.9752 34.3336 44.1186 34.3314C44.174 34.3306 44.234 34.343 44.2841 34.326C44.5543 34.2346 44.8325 34.2711 45.1079 34.2647C45.2515 34.2613 45.3951 34.2721 45.5339 34.2144C45.5825 34.1942 45.643 34.1985 45.698 34.1983C46.0085 34.1968 46.3188 34.1974 46.6293 34.1973C46.6965 34.1973 46.7628 34.1986 46.8127 34.2544C46.6254 34.2638 46.4343 34.2533 46.2523 34.2894C46.1203 34.3156 45.9914 34.3249 45.8595 34.3306C45.4421 34.3487 45.0254 34.3086 44.6055 34.384C44.2955 34.4398 43.971 34.4232 43.6527 34.4518C43.3683 34.4773 43.0884 34.5488 42.801 34.5441C42.7822 34.5439 42.7628 34.5641 42.7435 34.5745Z" fill="#E2DC1D"/>
<path d="M42.7422 34.5745C42.7614 34.5639 42.7808 34.5439 42.7999 34.5442C43.0871 34.549 43.367 34.4773 43.6515 34.452C43.9698 34.4234 44.2943 34.4399 44.6043 34.3842C45.0241 34.3087 45.4407 34.3489 45.8584 34.3308C45.9903 34.325 46.1192 34.3158 46.2511 34.2896C46.4331 34.2534 46.6242 34.264 46.8115 34.2546C46.8565 34.2531 46.9014 34.2518 46.9464 34.2502C47.0731 34.2531 47.1998 34.256 47.3266 34.2586C46.8523 34.32 46.376 34.3513 45.898 34.3504C45.5751 34.3498 45.2533 34.3627 44.9328 34.403C44.8447 34.4141 44.7556 34.4202 44.6667 34.4222C44.1549 34.434 43.6485 34.5024 43.1409 34.5599C43.009 34.5748 42.8751 34.5701 42.7422 34.5745Z" fill="#F1D118"/>
<path d="M37.6599 35.3863C37.6335 35.3925 37.6071 35.3987 37.5807 35.4048C37.4728 35.4187 37.3543 35.3683 37.2588 35.4584L37.2418 35.4727C37.2418 35.4727 37.2207 35.4655 37.2209 35.4655C37.0549 35.468 36.8887 35.4707 36.7227 35.4732C36.7387 35.4584 36.7533 35.4332 36.7713 35.4305C37.2048 35.3634 37.6265 35.2359 38.0665 35.1937C38.2496 35.176 38.4375 35.1532 38.6205 35.1179C39.0191 35.0409 39.4162 34.9555 39.8149 34.8783C39.8998 34.8618 39.9926 34.8487 40.0614 34.9299C39.9336 34.9575 39.8137 35.019 39.6773 35.0113C39.6521 35.0098 39.6247 35.0454 39.5982 35.0639L39.5814 35.0676C39.3353 35.0594 39.0975 35.1039 38.8655 35.1839L38.8469 35.2021C38.8469 35.2021 38.8213 35.1977 38.8215 35.1977C38.7038 35.2222 38.5742 35.1666 38.4647 35.2495L38.4437 35.2681C38.4437 35.2681 38.4159 35.2639 38.4161 35.2639C38.3001 35.2913 38.171 35.2322 38.0635 35.3174L38.0392 35.335C38.0392 35.335 38.0097 35.3303 38.0098 35.3302C37.8948 35.3587 37.7654 35.2982 37.6599 35.3863Z" fill="#E2DC1D"/>
<path d="M47.3274 34.2586C47.2007 34.2558 47.074 34.2529 46.9473 34.2502C46.9631 34.1544 47.0284 34.127 47.1143 34.1302C47.2186 34.1341 47.2673 34.0825 47.2985 33.9824C47.3841 33.7093 47.4321 33.4282 47.4834 33.148C47.5073 33.0176 47.5312 32.8905 47.6178 32.7849C47.6194 32.8575 47.621 32.9301 47.6227 33.0026C47.6367 33.0434 47.6352 33.0828 47.6123 33.1203C47.5541 33.1598 47.553 33.2189 47.5578 33.2801C47.5704 33.3415 47.5672 33.4012 47.5389 33.4583C47.4722 33.5089 47.4873 33.5837 47.4821 33.6525C47.4945 33.7261 47.4976 33.7987 47.4558 33.8656C47.4418 33.9049 47.4278 33.9441 47.4137 33.9834C47.4127 34.0478 47.4146 34.1124 47.4097 34.1764C47.406 34.2242 47.3749 34.2516 47.3274 34.2586Z" fill="#E2DC1D"/>
<path d="M42.003 34.5993C42.211 34.5965 42.4188 34.5934 42.6266 34.5906C42.5969 34.6042 42.5683 34.6259 42.5373 34.6301C42.1132 34.6877 41.6887 34.7437 41.2641 34.7977C41.2213 34.8031 41.1766 34.7931 41.1328 34.7904C41.1683 34.7476 41.2156 34.7336 41.2687 34.733C41.3226 34.7324 41.3685 34.7156 41.4003 34.6692C41.4232 34.6682 41.446 34.6672 41.4689 34.6662C41.6009 34.6645 41.733 34.6629 41.8653 34.661C41.9213 34.6634 41.9719 34.6533 42.003 34.5993Z" fill="#F1D118"/>
<path d="M41.4014 34.6695C41.3694 34.7159 41.3235 34.7325 41.2698 34.7332C41.2168 34.7337 41.1693 34.7478 41.1339 34.7907C40.9658 34.8706 40.7878 34.8835 40.6059 34.8702L40.5898 34.8566C40.6089 34.8043 40.6313 34.751 40.6935 34.7431C40.9289 34.713 41.1594 34.6347 41.4014 34.6695Z" fill="#E2DC1D"/>
<path d="M36.7235 35.4733C36.8896 35.4708 37.0557 35.4681 37.2217 35.4656C37.2126 35.4721 37.2046 35.4824 37.1948 35.4846C36.9503 35.5402 36.7054 35.5928 36.4531 35.596C36.4859 35.55 36.5342 35.5397 36.5862 35.5377C36.6424 35.5385 36.6927 35.5269 36.7235 35.4733Z" fill="#F1D118"/>
<path d="M38.8652 35.1838C39.0973 35.1036 39.3349 35.0593 39.5811 35.0675C39.3427 35.1084 39.1093 35.179 38.8652 35.1838Z" fill="#F1D118"/>
<path d="M39.5977 35.0638C39.6241 35.0453 39.6515 35.0097 39.6767 35.0112C39.8132 35.0189 39.933 34.9574 40.0608 34.9299C40.0837 34.9273 40.1064 34.9246 40.1291 34.9221C40.1733 34.925 40.2172 34.928 40.2614 34.9309H40.2607C40.0487 35.0203 39.8183 35.0179 39.5977 35.0638Z" fill="#F1D118"/>
<path d="M37.6602 35.3863C37.7658 35.2982 37.8951 35.3587 38.0099 35.33C37.9026 35.4078 37.7804 35.3905 37.6602 35.3863Z" fill="#F1D118"/>
<path d="M38.0645 35.3171C38.172 35.2321 38.301 35.2911 38.417 35.2637C38.307 35.3324 38.1847 35.317 38.0645 35.3171Z" fill="#F1D118"/>
<path d="M38.4648 35.2494C38.5744 35.1665 38.7037 35.2222 38.8216 35.1976C38.7091 35.2608 38.5847 35.2398 38.4648 35.2494Z" fill="#F1D118"/>
<path d="M37.2598 35.4583C37.3551 35.3682 37.4736 35.4187 37.5816 35.4047C37.484 35.4815 37.3711 35.4654 37.2598 35.4583Z" fill="#F1D118"/>
<path d="M36.0508 35.6651C36.1426 35.5688 36.2629 35.6223 36.3694 35.6038C36.2688 35.6528 36.1655 35.689 36.0508 35.6651Z" fill="#F1D118"/>
<path d="M40.6051 34.87C40.5008 34.9487 40.3828 34.948 40.2617 34.9308H40.2624C40.3321 34.8384 40.4381 34.8804 40.5269 34.8587L40.558 34.8594L40.5889 34.8562L40.6051 34.87Z" fill="#F1D118"/>
<path d="M47.4824 33.6525C47.4876 33.5838 47.4727 33.509 47.5393 33.4584C47.554 33.533 47.5182 33.5929 47.4824 33.6525Z" fill="#F1D118"/>
<path d="M47.622 33.0028C47.6205 32.9301 47.6189 32.8575 47.6172 32.7851C47.6389 32.7847 47.6608 32.7844 47.6826 32.7841C47.6928 32.8654 47.6583 32.9343 47.622 33.0028Z" fill="#F1D118"/>
<path d="M27.7072 32.313C27.7807 32.3728 27.7623 32.455 27.7602 32.5332C27.7117 32.4675 27.6896 32.395 27.7072 32.313Z" fill="#F1D118"/>
<path d="M47.4141 33.9834C47.4281 33.9441 47.4421 33.9049 47.4562 33.8656C47.4666 33.9138 47.4418 33.9491 47.4141 33.9834Z" fill="#F1D118"/>
<path d="M47.5565 33.2801C47.5516 33.2189 47.5528 33.1597 47.611 33.1202C47.6218 33.1836 47.5981 33.2349 47.5565 33.2801Z" fill="#F1D118"/>
<path d="M41.7892 64.2727C41.7892 64.384 41.7899 64.4953 41.7891 64.6066C41.7884 64.6881 41.7421 64.7246 41.665 64.7281C41.6429 64.7291 41.6207 64.7296 41.5986 64.7301C41.3497 64.7355 41.3425 64.7293 41.3405 64.4741C41.339 64.2848 41.3403 64.0957 41.3418 63.9064C41.3425 63.8257 41.3858 63.7857 41.4654 63.7841C41.4875 63.7835 41.5097 63.783 41.5318 63.7827C41.7815 63.778 41.7879 63.7841 41.7914 64.0389C41.7924 64.1167 41.7916 64.1947 41.7916 64.2727C41.7906 64.2727 41.7899 64.2727 41.7892 64.2727Z" fill="#010100"/>
<path d="M23.6532 64.2237C23.6532 64.1015 23.6505 63.9793 23.6546 63.8571C23.6561 63.8095 23.6902 63.7778 23.7382 63.7692C24.0474 63.7139 24.1031 63.7598 24.1036 64.0753C24.104 64.253 24.1014 64.4308 24.0964 64.6085C24.0951 64.6546 24.069 64.6912 24.0169 64.6979C24.0058 64.6993 23.995 64.702 23.9839 64.702C23.6521 64.7031 23.643 64.7416 23.647 64.3905C23.6477 64.3348 23.6472 64.2794 23.6472 64.2237C23.649 64.2237 23.6512 64.2237 23.6532 64.2237Z" fill="#010100"/>
<path d="M47.2193 64.6839C47.1817 64.7039 47.1628 64.722 47.1431 64.7234C46.7061 64.7513 46.7776 64.7387 46.7736 64.3896C46.7716 64.2226 46.7746 64.0557 46.7788 63.889C46.7805 63.8246 46.8206 63.7868 46.8844 63.7856C47.2317 63.779 47.2215 63.7525 47.2197 64.0954C47.2185 64.2946 47.2193 64.4941 47.2193 64.6839Z" fill="#010100"/>
<path d="M40.5894 34.8563L40.5584 34.8595L40.5273 34.8589C40.426 34.7696 40.3098 34.7972 40.1967 34.8209C40.1495 34.8306 40.1427 34.8816 40.1304 34.9222C40.1077 34.9248 40.0848 34.9274 40.0621 34.93C39.9934 34.8486 39.9006 34.8619 39.8155 34.8784C39.4169 34.9554 39.0198 35.0409 38.6211 35.1179C38.438 35.1532 38.2503 35.1761 38.067 35.1937C37.6272 35.2361 37.2055 35.3637 36.7719 35.4306C36.754 35.4333 36.7394 35.4586 36.7232 35.4733C36.6925 35.5269 36.6421 35.5386 36.5861 35.5378C36.4828 35.4343 36.3559 35.4674 36.2404 35.4916C35.9695 35.5482 35.6897 35.5543 35.4233 35.6175C35.1727 35.677 34.9133 35.6392 34.6683 35.7237C34.6073 35.7447 34.5366 35.7407 34.4702 35.7424C34.2489 35.7481 34.0267 35.7259 33.8093 35.8007C33.7391 35.8249 33.6549 35.8098 33.577 35.8098C33.2096 35.8106 32.8422 35.8086 32.4749 35.8111C32.2535 35.8126 32.0308 35.7903 31.814 35.8668C31.7538 35.888 31.6816 35.8765 31.615 35.8767C30.7911 35.8772 29.9673 35.8826 29.1435 35.8737C28.9126 35.8711 28.6818 35.8291 28.4517 35.7989C28.3656 35.7876 28.3089 35.7254 28.3074 35.6385C28.3038 35.437 28.2712 35.2406 28.2357 35.0428C28.1653 34.6498 28.1252 34.2519 28.0486 33.859C28.0129 33.6753 28.0025 33.4848 27.9679 33.2984C27.9192 33.0367 27.8534 32.7731 27.849 32.5095C27.8427 32.1263 27.6967 31.7671 27.6954 31.3863C27.5994 31.1431 27.6646 30.8755 27.5814 30.6292C27.5615 30.5702 27.6009 30.5188 27.6644 30.509C27.73 30.4989 27.7974 30.4983 27.8639 30.4984C28.5542 30.4986 29.2443 30.4998 29.9347 30.5008C30.0458 30.501 30.1563 30.4998 30.2642 30.5393C30.315 30.5579 30.373 30.5623 30.4278 30.5638C30.6826 30.5702 30.9344 30.5845 31.1892 30.6201C31.4719 30.6596 31.7617 30.6667 32.0484 30.6917C32.4123 30.7237 32.7723 30.7755 33.1341 30.8195C33.3536 30.8461 33.5768 30.8568 33.7909 30.9096C33.9772 30.9555 34.1623 30.9815 34.351 30.9683C34.49 30.9585 34.6115 31.02 34.7429 31.0395C35.1694 31.1024 35.5955 31.1686 36.0194 31.2476C36.3671 31.3125 36.7102 31.403 37.0574 31.4717C37.3824 31.5361 37.7104 31.585 38.0365 31.6442C38.2976 31.6916 38.5581 31.7435 38.8187 31.7945C39.3612 31.9004 39.9032 32.0096 40.4464 32.112C40.8152 32.1814 41.1859 32.2418 41.5559 32.3048C41.5995 32.3122 41.6445 32.3125 41.6889 32.3134C41.8443 32.3159 41.9986 32.352 42.1492 32.3608C42.4376 32.3776 42.7227 32.422 43.0069 32.4574C43.3357 32.4984 43.6708 32.4848 43.9946 32.5672C44.0162 32.5726 44.0387 32.5796 44.0601 32.5781C44.4503 32.5509 44.833 32.6469 45.2211 32.6489C45.8555 32.6523 46.4902 32.6514 47.1248 32.6494C47.2353 32.6491 47.3463 32.6393 47.4562 32.6259C47.5908 32.6092 47.5903 32.6055 47.618 32.7851C47.5314 32.8906 47.5075 33.0177 47.4836 33.1481C47.4323 33.4284 47.3845 33.7093 47.2987 33.9826C47.2673 34.0826 47.2188 34.1344 47.1144 34.1303C47.0285 34.1271 46.9633 34.1544 46.9474 34.2504C46.9025 34.2517 46.8575 34.2532 46.8125 34.2547C46.7627 34.1987 46.6963 34.1974 46.6291 34.1974C46.3186 34.1977 46.0083 34.1971 45.6979 34.1984C45.6429 34.1987 45.5824 34.1944 45.5337 34.2145C45.3949 34.2722 45.2513 34.2614 45.1077 34.2648C44.8324 34.2712 44.5542 34.2347 44.284 34.3262C44.2338 34.3431 44.174 34.3307 44.1185 34.3315C43.975 34.3337 43.8306 34.3198 43.6925 34.3803C43.6537 34.3973 43.6054 34.3984 43.5618 34.3971C43.1843 34.3857 42.8158 34.4495 42.4476 34.5232C42.3513 34.5425 42.2489 34.5316 42.1492 34.5339C42.0914 34.5353 42.0409 34.5521 42.0038 34.5995C41.9725 34.6535 41.922 34.6635 41.866 34.6614C41.7328 34.5696 41.6005 34.5677 41.4696 34.6664C41.4467 34.6674 41.424 34.6684 41.4011 34.6694C41.1591 34.6346 40.9286 34.713 40.6932 34.7429C40.6307 34.7508 40.6084 34.8041 40.5894 34.8563Z" fill="#FFD01B"/>
<path d="M41.4688 34.6663C41.5997 34.5676 41.7319 34.5693 41.8651 34.6613C41.7331 34.6629 41.6008 34.6646 41.4688 34.6663Z" fill="#E2DC1D"/>
<path d="M40.1309 34.9222C40.1431 34.8815 40.1498 34.8307 40.1971 34.8208C40.3102 34.7973 40.4264 34.7697 40.5278 34.8588C40.4388 34.8803 40.3328 34.8385 40.2631 34.9308C40.219 34.9281 40.1748 34.925 40.1309 34.9222Z" fill="#E2DC1D"/>
</svg>
